<svg width="38" height="40" viewBox="0 0 38 40" fill="none" xmlns="http://www.w3.org/2000/svg">
<path d="M19 10C17.8549 10 16.9231 10.8973 16.9231 12C16.9231 13.1027 17.8549 14 19 14C20.1451 14 21.0769 13.1027 21.0769 12C21.0769 10.8973 20.1451 10 19 10Z" fill="#94A2B8"/>
<path d="M12.0769 10C10.9318 10 10 10.8973 10 12C10 13.1027 10.9318 14 12.0769 14C13.222 14 14.1538 13.1027 14.1538 12C14.1538 10.8973 13.222 10 12.0769 10Z" fill="#94A2B8"/>
<path d="M25.9231 10C24.778 10 23.8462 10.8973 23.8462 12C23.8462 13.1027 24.778 14 25.9231 14C27.0682 14 28 13.1027 28 12C28 10.8973 27.0682 10 25.9231 10Z" fill="#94A2B8"/>
</svg>
