<svg width="390" height="507" viewBox="0 0 390 507" fill="none" xmlns="http://www.w3.org/2000/svg">
<path d="M367.5 485.911C462.769 396.457 462.769 251.424 367.5 161.97C272.231 72.5166 117.769 72.5166 22.5 161.97C-72.7691 251.424 -72.7691 396.457 22.5 485.911C117.769 575.364 272.231 575.364 367.5 485.911Z" fill="#4AB0F6"/>
<mask id="mask0_1531_2770" style="mask-type:luminance" maskUnits="userSpaceOnUse" x="-49" y="94" width="488" height="460">
<path d="M367.5 485.911C462.769 396.457 462.769 251.424 367.5 161.97C272.231 72.5166 117.769 72.5166 22.5 161.97C-72.7691 251.424 -72.7691 396.457 22.5 485.911C117.769 575.364 272.231 575.364 367.5 485.911Z" fill="white"/>
</mask>
<g mask="url(#mask0_1531_2770)">
<path d="M-21.312 153.919C-21.312 153.919 15.8055 127.003 47.7403 144.126C79.6536 161.249 98.5349 159.411 77.6966 183.258C56.8584 207.105 49.6972 213.829 64.0195 224.228C78.3418 234.627 78.2773 221.785 86.4491 213.829C94.621 205.873 112.212 205.268 121.33 224.228C130.448 243.189 145.437 252.356 121.33 270.105C97.2231 287.834 68.5785 315.982 52.2778 315.356C35.9986 314.75 21.6548 316.587 26.8805 335.548C32.1062 354.508 49.0306 363.07 64.6646 366.745C80.2987 370.42 165.63 389.986 168.232 413.833C170.834 437.68 112.212 517.803 111.567 537.975C110.922 558.167 119.373 559.984 109.61 563.659C99.8467 567.334 76.3848 536.743 77.6966 533.694C77.6966 533.694 75.4601 528.303 79.6966 507.464C83.933 486.646 91.0297 463.163 76.3848 460.497C61.7615 457.832 36.2781 449.412 46.665 432.147C57.0519 414.863 61.7615 407.331 59.3959 402.909C57.0304 398.487 49.7187 392.874 44.0629 379.143C38.4071 365.412 9.61204 360.788 0.171375 355.78C-9.26928 350.773 -14.2799 348.41 -21.3335 324.482C-28.3872 300.555 -27.9141 248.721 -36.4085 239.413C-44.9029 230.104 -52.4512 224.794 -52.4512 224.794L-21.312 153.919Z" fill="#7EECC3"/>
<path d="M98.1034 133.767C98.1034 133.767 92.9638 147.356 108.34 149.315C125.802 151.536 143.027 156.705 142.232 174.475C141.436 192.244 140.662 208.519 163.521 212.961C186.381 217.403 182.446 193.718 187.951 190.023C193.456 186.327 209.219 193.718 215.542 161.168C221.864 128.618 238.875 118.542 219.477 112.323C183.069 100.652 177.199 121.248 133.565 120.46C112.297 120.077 102.254 121.793 98.1034 133.787V133.767Z" fill="#7EECC3"/>
<path d="M323.24 164.54C310.229 167.528 298.789 174.757 290.875 184.894C271.649 209.508 236.639 255.728 237.801 264.411C239.392 276.385 244.166 295.81 255.327 296.557C263.434 297.102 287.993 285.37 300.767 278.949C305.95 276.344 311.842 275.294 317.691 275.981C332.659 277.717 361.282 280.625 363.626 277.879C366.809 274.143 375.561 257.687 382.744 267.419C389.926 277.152 401.066 289.106 382.744 289.106C364.422 289.106 344.508 283.129 344.508 301.827C344.508 320.525 356.443 360.889 381.927 361.656C407.41 362.403 404.055 344.089 402.464 340.354C400.872 336.618 394.292 324.927 395.668 321.353C399.045 312.63 429.711 320.525 429.711 331.752C429.711 342.979 428.119 373.63 455.194 378.113C482.269 382.596 470.85 356.931 473.516 345.967C476.14 335.144 498.999 324.281 501.386 360.182C503.774 396.064 510.935 385.725 523.687 378.557C536.44 371.389 537.235 342.979 542.009 338.496C546.783 334.013 560.331 316.809 560.331 316.809L509.365 147.821C509.365 147.821 432.119 139.623 323.24 164.601V164.54Z" fill="#7EECC3"/>
<path d="M313.132 319.919C313.132 319.919 291.778 309.621 271.026 313.962C250.252 318.304 233.521 321.009 223.715 337.789C213.909 354.569 216.575 382.273 223.715 389.804C235.994 402.727 270.445 395.216 274.488 413.106C278.531 430.996 297.563 447.776 295.262 461.325C292.961 474.874 286.036 506.293 310.831 511.159C335.648 516.026 351.798 452.663 358.723 443.435C365.647 434.207 381.217 387.644 362.766 381.142C344.293 374.64 337.885 362.484 335.648 350.268C333.971 341.161 329.067 325.169 313.154 319.939L313.132 319.919Z" fill="#7EECC3"/>
<g style="mix-blend-mode:multiply" opacity="0.69">
<path d="M24.5372 530.807C24.5372 530.807 208.082 552.331 330.015 413.813C438.012 291.125 400.744 185.742 400.744 185.742L512.312 277.172L495.129 478.246L298.467 688.084L71.7835 585.184L22.3652 524.648L24.5587 530.807H24.5372Z" fill="#D1D1D1"/>
</g>
</g>
</svg>
