<svg width="390" height="507" viewBox="0 0 390 507" fill="none" xmlns="http://www.w3.org/2000/svg">
<path d="M367.5 485.911C462.769 396.457 462.769 251.424 367.5 161.97C272.231 72.5166 117.769 72.5166 22.5 161.97C-72.7691 251.424 -72.7691 396.457 22.5 485.911C117.769 575.364 272.231 575.364 367.5 485.911Z" fill="#4AB0F6"/>
<mask id="mask0_2346_3510" style="mask-type:luminance" maskUnits="userSpaceOnUse" x="-49" y="94" width="488" height="460">
<path d="M367.5 485.911C462.769 396.457 462.769 251.424 367.5 161.97C272.231 72.5166 117.769 72.5166 22.5 161.97C-72.7691 251.424 -72.7691 396.457 22.5 485.911C117.769 575.364 272.231 575.364 367.5 485.911Z" fill="white"/>
</mask>
<g mask="url(#mask0_2346_3510)">
<path d="M-21.312 153.919C-21.312 153.919 15.8055 127.003 47.7403 144.126C79.6536 161.249 98.5349 159.411 77.6966 183.258C56.8584 207.105 49.6972 213.829 64.0195 224.228C78.3418 234.627 78.2773 221.785 86.4491 213.829C94.621 205.873 112.212 205.268 121.33 224.228C130.448 243.189 145.437 252.356 121.33 270.105C97.2231 287.834 68.5785 315.982 52.2778 315.356C35.9986 314.75 21.6548 316.587 26.8805 335.548C32.1062 354.508 49.0306 363.07 64.6646 366.745C80.2987 370.42 165.63 389.986 168.232 413.833C170.834 437.68 112.212 517.803 111.567 537.975C110.922 558.167 119.373 559.984 109.61 563.659C99.8467 567.334 76.3848 536.743 77.6966 533.694C77.6966 533.694 75.4601 528.303 79.6966 507.464C83.933 486.646 91.0297 463.163 76.3848 460.497C61.7615 457.832 36.2781 449.412 46.665 432.147C57.0519 414.863 61.7615 407.331 59.3959 402.909C57.0304 398.487 49.7187 392.874 44.0629 379.143C38.4071 365.412 9.61204 360.788 0.171375 355.78C-9.26928 350.773 -14.2799 348.41 -21.3335 324.482C-28.3872 300.555 -27.9141 248.721 -36.4085 239.413C-44.9029 230.104 -52.4512 224.794 -52.4512 224.794L-21.312 153.919Z" fill="#7EECC3"/>
<path d="M98.1034 133.767C98.1034 133.767 92.9638 147.356 108.34 149.315C125.802 151.536 143.027 156.705 142.232 174.475C141.436 192.244 140.662 208.519 163.521 212.961C186.381 217.403 182.446 193.718 187.951 190.023C193.456 186.327 209.219 193.718 215.542 161.168C221.864 128.618 238.875 118.542 219.477 112.323C183.069 100.652 177.199 121.248 133.565 120.46C112.297 120.077 102.254 121.793 98.1034 133.787V133.767Z" fill="#7EECC3"/>
<path d="M323.24 164.54C310.229 167.528 298.789 174.757 290.875 184.894C271.649 209.508 236.639 255.728 237.801 264.411C239.392 276.385 244.166 295.81 255.327 296.557C263.434 297.102 287.993 285.37 300.767 278.949C305.95 276.344 311.842 275.294 317.691 275.981C332.659 277.717 361.282 280.625 363.626 277.879C366.809 274.143 375.561 257.687 382.744 267.419C389.926 277.152 401.066 289.106 382.744 289.106C364.422 289.106 344.508 283.129 344.508 301.827C344.508 320.525 356.443 360.889 381.927 361.656C407.41 362.403 404.055 344.089 402.464 340.354C400.872 336.618 394.292 324.927 395.668 321.353C399.045 312.63 429.711 320.525 429.711 331.752C429.711 342.979 428.119 373.63 455.194 378.113C482.269 382.596 470.85 356.931 473.516 345.967C476.14 335.144 498.999 324.281 501.386 360.182C503.774 396.064 510.935 385.725 523.687 378.557C536.44 371.389 537.235 342.979 542.009 338.496C546.783 334.013 560.331 316.809 560.331 316.809L509.365 147.821C509.365 147.821 432.119 139.623 323.24 164.601V164.54Z" fill="#7EECC3"/>
<path d="M313.132 319.919C313.132 319.919 291.778 309.621 271.026 313.962C250.252 318.304 233.521 321.009 223.715 337.789C213.909 354.569 216.575 382.273 223.715 389.804C235.994 402.727 270.445 395.216 274.488 413.106C278.531 430.996 297.563 447.776 295.262 461.325C292.961 474.874 286.036 506.293 310.831 511.159C335.648 516.026 351.798 452.663 358.723 443.435C365.647 434.207 381.217 387.644 362.766 381.142C344.293 374.64 337.885 362.484 335.648 350.268C333.971 341.161 329.067 325.169 313.154 319.939L313.132 319.919Z" fill="#7EECC3"/>
<g style="mix-blend-mode:multiply" opacity="0.69">
<path d="M24.5372 530.807C24.5372 530.807 208.082 552.331 330.015 413.813C438.012 291.125 400.744 185.742 400.744 185.742L512.312 277.172L495.129 478.246L298.467 688.084L71.7835 585.184L22.3652 524.648L24.5587 530.807H24.5372Z" fill="#D1D1D1"/>
</g>
</g>
<g clip-path="url(#clip0_2346_3510)">
<path fill-rule="evenodd" clip-rule="evenodd" d="M223 125.767C223 125.767 251.27 99.5559 276.784 103.174C285.813 104.458 292.187 109.477 292.187 109.477C292.187 109.477 315.25 82.6157 340.392 85.1834C357.402 86.9341 355.525 105.758 355.525 105.758C355.525 105.758 373.143 98.4888 387.464 103.174C404.896 108.876 393.128 126.017 393.128 126.017L223 125.783V125.767Z" fill="white"/>
</g>
<path fill-rule="evenodd" clip-rule="evenodd" d="M-7 358.845C-7 358.845 11.0344 342.224 27.3107 344.518C33.0704 345.333 37.1368 348.515 37.1368 348.515C37.1368 348.515 51.8491 331.481 67.8881 333.11C78.7389 334.22 77.5416 346.157 77.5416 346.157C77.5416 346.157 88.7808 341.547 97.9166 344.518C109.037 348.135 101.53 359.004 101.53 359.004L-7 358.856V358.845Z" fill="white"/>
<path fill-rule="evenodd" clip-rule="evenodd" d="M60 66C55.5817 66 52 69.5817 52 74V122C52 126.418 55.5817 130 60 130H67.4944L82.4911 144.406L85.0158 130H118C122.418 130 126 126.418 126 122V74C126 69.5817 122.418 66 118 66H60Z" fill="white"/>
<g clip-path="url(#clip1_2346_3510)">
<path d="M113.46 101.955C113.46 99.1863 112.088 96.7446 110.003 95.2828C110.518 94.2106 110.815 93.0128 110.815 91.7395C110.815 87.2706 107.251 83.6478 102.854 83.6478C102.701 83.6478 102.553 83.6603 102.405 83.6729C102.034 79.5516 98.6304 76.3224 94.481 76.3224C91.9427 76.3224 89.6888 77.5329 88.2301 79.4134C86.7714 77.5329 84.5175 76.3224 81.9792 76.3224C77.8298 76.3224 74.4222 79.5516 74.0554 83.6729C73.9071 83.6645 73.7587 83.6478 73.6063 83.6478C69.2097 83.6478 65.6454 87.2706 65.6454 91.7395C65.6454 93.0128 65.9421 94.2106 66.4571 95.2828C64.3721 96.7446 63 99.1863 63 101.955C63 105.741 65.563 108.916 69.0242 109.795C69.0242 109.879 69.0119 109.963 69.0119 110.047C69.0119 114.515 72.5761 118.138 76.9728 118.138C78.588 118.138 80.0838 117.648 81.3405 116.811C82.4902 119.843 85.3746 122 88.7658 122C91.9674 122 94.72 120.073 95.985 117.305C97.044 117.837 98.2307 118.143 99.4916 118.143C103.888 118.143 107.452 114.52 107.452 110.051C107.452 109.967 107.444 109.883 107.44 109.799C110.897 108.92 113.464 105.745 113.464 101.959L113.46 101.955ZM84.398 107.144C83.475 104.711 81.4353 102.851 78.9135 102.206C78.9135 102.122 78.9259 102.039 78.9259 101.955C78.9259 100.682 78.6292 99.4837 78.1142 98.4115C80.0137 97.0838 81.3158 94.9436 81.5342 92.4809C81.6826 92.4893 81.8309 92.506 81.9834 92.506C84.5216 92.506 86.7756 91.2956 88.2342 89.415C89.6929 91.2956 91.9468 92.506 94.4851 92.506C94.6376 92.506 94.7859 92.4934 94.9342 92.4809C95.1526 94.9436 96.4547 97.0838 98.3543 98.4115C97.8392 99.4837 97.5425 100.682 97.5425 101.955C97.5425 102.039 97.5508 102.122 97.5549 102.206C95.2062 102.805 93.2737 104.459 92.2765 106.65C91.2175 106.118 90.0308 105.812 88.7699 105.812C87.1546 105.812 85.6589 106.302 84.4021 107.14L84.398 107.144Z" fill="#350601"/>
<path d="M76.2933 81.2312C74.8263 80.3977 72.9144 80.582 71.5011 81.5076C70.0877 82.4332 69.1606 84.0122 68.8021 85.6791C68.5013 87.0738 68.6538 88.7198 69.721 89.6496" stroke="#350601" stroke-miterlimit="10"/>
<path d="M91.4815 79.5768C90.472 77.6083 88.354 76.2178 86.1702 76.3141C83.9863 76.4104 81.9177 78.1276 81.584 80.3223" stroke="#350601" stroke-miterlimit="10"/>
<path d="M95.6758 80.6908C97.5918 79.493 100.072 79.5391 102.182 80.3348C102.899 80.6029 103.608 80.9715 104.094 81.5704C104.642 82.2489 104.852 83.1452 104.931 84.0205C105.054 85.3817 104.91 86.7681 104.502 88.0706" stroke="#350601" stroke-miterlimit="10"/>
<path d="M68.2247 93.2432C66.0038 93.239 63.9311 95.1321 63.7045 97.3812C63.4779 99.6303 65.122 101.913 67.2976 102.369" stroke="#350601" stroke-miterlimit="10"/>
<path d="M83.6064 80.8039C85.3 78.9066 87.4427 77.3737 89.8656 76.6533C92.2843 75.933 94.9915 76.0628 97.2249 77.2565C99.4582 78.4501 101.148 80.7495 101.399 83.3002" stroke="#350601" stroke-miterlimit="10"/>
<path d="M108.137 92.4767C109.731 92.5898 111.215 93.5238 112.183 94.8138C113.156 96.1037 113.646 97.7246 113.765 99.3455C113.873 100.807 113.679 102.323 112.991 103.609C112.303 104.895 111.075 105.929 109.649 106.151" stroke="#350601" stroke-miterlimit="10"/>
<path d="M88.9469 85.1891H87.8838C79.8983 85.1891 73.4248 91.769 73.4248 99.8858V104.376C73.4248 112.492 79.8983 119.072 87.8838 119.072H88.9469C96.9324 119.072 103.406 112.492 103.406 104.376V99.8858C103.406 91.769 96.9324 85.1891 88.9469 85.1891Z" fill="#915943"/>
<g style="mix-blend-mode:soft-light">
<mask id="mask1_2346_3510" style="mask-type:luminance" maskUnits="userSpaceOnUse" x="73" y="85" width="31" height="35">
<path d="M88.9469 85.1891H87.8838C79.8983 85.1891 73.4248 91.769 73.4248 99.8858V104.376C73.4248 112.492 79.8983 119.072 87.8838 119.072H88.9469C96.9324 119.072 103.406 112.492 103.406 104.376V99.8858C103.406 91.769 96.9324 85.1891 88.9469 85.1891Z" fill="white"/>
</mask>
<g mask="url(#mask1_2346_3510)">
<path d="M81.9054 111.743C84.4174 109.19 84.4174 105.05 81.9054 102.497C79.3935 99.9438 75.3209 99.9438 72.809 102.497C70.2971 105.05 70.2971 109.19 72.809 111.743C75.3209 114.296 79.3935 114.296 81.9054 111.743Z" fill="#915943"/>
<path d="M104.225 111.996C106.874 109.591 107.103 105.458 104.736 102.765C102.369 100.072 98.303 99.8398 95.6539 102.246C93.0049 104.651 92.7761 108.784 95.143 111.477C97.5099 114.17 101.576 114.402 104.225 111.996Z" fill="#915943"/>
</g>
</g>
<path d="M88.4155 83.9954C87.3689 83.7986 71.5295 81.1641 73.2725 102.319H75.1886V96.9749C75.1886 96.9749 80.9903 98.2356 82.3006 92.1123C82.3006 92.1123 84.571 94.1143 88.3578 94.152C88.3578 94.152 88.3949 94.152 88.4114 94.152C88.432 94.152 88.4485 94.152 88.465 94.152C92.2517 94.1101 94.5222 92.1081 94.5222 92.1081C95.8325 98.2314 101.634 96.9707 101.634 96.9707V102.315H103.55C105.293 81.1599 89.4539 83.7944 88.4073 83.9912L88.4155 83.9954Z" fill="#350601"/>
<path d="M83.6106 102.323C84.3183 102.323 84.8921 101.545 84.8921 100.585C84.8921 99.6253 84.3183 98.8471 83.6106 98.8471C82.9028 98.8471 82.3291 99.6253 82.3291 100.585C82.3291 101.545 82.9028 102.323 83.6106 102.323Z" fill="#350601"/>
<path d="M92.9934 102.323C93.7012 102.323 94.2749 101.545 94.2749 100.585C94.2749 99.6253 93.7012 98.8471 92.9934 98.8471C92.2857 98.8471 91.7119 99.6253 91.7119 100.585C91.7119 101.545 92.2857 102.323 92.9934 102.323Z" fill="#350601"/>
<path d="M88.415 98.8471V103.764L91.3035 103.551C91.3035 103.551 91.6661 106.998 88.415 106.998" stroke="#350601" stroke-miterlimit="10"/>
<path d="M84.8916 108.778C84.8916 108.778 85.419 111.115 88.8844 111.115C92.3498 111.115 92.9926 108.778 92.9926 108.778" stroke="#350601" stroke-miterlimit="10"/>
<path d="M94.5266 86.4372C92.2768 89.4486 88.1068 90.8098 84.5508 89.6915" stroke="#54160C" stroke-miterlimit="10"/>
<path d="M92.5154 84.6362C92.2063 85.4069 91.4852 85.9178 90.7642 86.3074C89.1654 87.1701 87.3812 87.6686 85.5723 87.7565" stroke="#54160C" stroke-miterlimit="10"/>
<path d="M97.3408 88.0162C97.3408 89.2015 97.6045 90.3826 98.1072 91.4506C98.5317 92.3511 99.3516 93.2725 100.316 93.0882" stroke="#54160C" stroke-miterlimit="10"/>
<path d="M99.4502 88.5313C99.6233 90.1815 100.995 91.6223 102.611 91.8484" stroke="#54160C" stroke-miterlimit="10"/>
<path d="M107.613 97.0084C108.87 99.0984 109.035 101.825 108.042 104.062" stroke="#54160C" stroke-miterlimit="10"/>
<path d="M68.2661 98.0471C67.2855 98.8722 66.7209 100.187 66.791 101.482C66.861 102.776 67.5657 104.015 68.6329 104.727" stroke="#54160C" stroke-miterlimit="10"/>
<path d="M70.5081 98.6712C69.9601 99.9361 69.8529 101.398 70.2155 102.734" stroke="#54160C" stroke-miterlimit="10"/>
<path d="M81.8849 96.4221L81.4811 97.2388C81.3699 97.4608 81.2668 97.6576 81.1556 97.8503C81.0443 98.043 80.9248 98.2272 80.7847 98.4325L80.2697 99.1822C79.9771 98.9309 79.8535 98.5707 79.8329 98.2189C79.8164 97.8671 79.9112 97.511 80.0884 97.2095C80.2656 96.9079 80.5252 96.6524 80.8383 96.4975C81.1515 96.3467 81.5182 96.2839 81.8767 96.4221H81.8849Z" fill="#350601"/>
<path d="M94.8608 96.4221C95.2193 96.2839 95.586 96.3467 95.8992 96.4975C96.2123 96.6524 96.4719 96.9037 96.6491 97.2095C96.8263 97.511 96.9211 97.8671 96.9046 98.2189C96.884 98.5707 96.7645 98.9309 96.4678 99.1822L95.9527 98.4325C95.8126 98.2272 95.6931 98.043 95.5819 97.8503C95.4706 97.6576 95.3676 97.4608 95.2564 97.2388L94.8525 96.4221H94.8608Z" fill="#350601"/>
</g>
<path fill-rule="evenodd" clip-rule="evenodd" d="M328 158C332.418 158 336 161.582 336 166V214C336 218.418 332.418 222 328 222H320.506L305.509 236.406L302.984 222H270C265.582 222 262 218.418 262 214V166C262 161.582 265.582 158 270 158H328Z" fill="white"/>
<g clip-path="url(#clip2_2346_3510)">
<path d="M312.161 177.268C313.535 175.661 312.99 172.885 311.2 171.758C309.409 170.627 306.816 171.197 305.507 172.855" stroke="#F8E14C" stroke-miterlimit="10"/>
<path d="M310.934 173.386C311.11 171.171 309.427 168.96 307.241 168.54C305.056 168.12 302.669 169.547 302.008 171.672" stroke="#F8E14C" stroke-miterlimit="10"/>
<path d="M294.465 172.049C293.335 169.962 290.433 169.063 288.317 170.142C286.2 171.222 285.234 174.097 286.264 176.235" stroke="#F8E14C" stroke-miterlimit="10"/>
<path d="M289.077 173.459C288.849 171.381 290.408 169.26 292.464 168.848C294.521 168.437 296.775 169.8 297.367 171.805" stroke="#F8E14C" stroke-miterlimit="10"/>
<path d="M298.191 172.743C298.041 170.657 299.677 168.596 301.746 168.261C303.815 167.927 306.018 169.367 306.537 171.394" stroke="#F8E14C" stroke-miterlimit="10"/>
<path d="M299.526 175.336H298.419C290.098 175.336 283.354 182.067 283.354 190.371V194.965C283.354 203.268 290.098 210 298.419 210H299.526C307.847 210 314.592 203.268 314.592 194.965V190.371C314.592 182.067 307.847 175.336 299.526 175.336Z" fill="#F2B1A5"/>
<g style="mix-blend-mode:soft-light">
<mask id="mask2_2346_3510" style="mask-type:luminance" maskUnits="userSpaceOnUse" x="283" y="175" width="32" height="35">
<path d="M299.526 175.336H298.419C290.098 175.336 283.354 182.067 283.354 190.371V194.965C283.354 203.268 290.098 210 298.419 210H299.526C307.847 210 314.592 203.268 314.592 194.965V190.371C314.592 182.067 307.847 175.336 299.526 175.336Z" fill="white"/>
</mask>
<g mask="url(#mask2_2346_3510)">
<path d="M290.042 203.939C293.456 202.511 295.064 198.592 293.634 195.185C292.204 191.778 288.277 190.173 284.863 191.6C281.449 193.028 279.841 196.947 281.271 200.354C282.701 203.761 286.628 205.366 290.042 203.939Z" fill="#71453B"/>
<path d="M313.575 203.939C316.989 202.512 318.597 198.593 317.167 195.186C315.737 191.779 311.81 190.174 308.396 191.601C304.982 193.028 303.374 196.948 304.804 200.355C306.235 203.762 310.161 205.367 313.575 203.939Z" fill="#71453B"/>
</g>
</g>
<path d="M283.426 190.945C283.426 190.945 280 190.2 280 193.945C280 198.35 283.825 197.685 283.825 197.685L283.426 190.95V190.945Z" fill="#D3826F"/>
<path d="M314.574 190.945C314.574 190.945 318 190.2 318 193.945C318 198.35 314.175 197.685 314.175 197.685L314.574 190.95V190.945Z" fill="#D3826F"/>
<path d="M315.287 181.557C315.287 177.033 312.05 169.474 299.346 169.453C299.346 169.453 299.329 169.453 299.32 169.453C299.312 169.453 299.303 169.453 299.295 169.453C286.591 169.474 283.354 177.033 283.354 181.557C283.354 186.082 283.427 190.941 283.427 190.941H286.303V183.91C286.303 183.91 288.351 184.398 289.497 183.096C290.639 181.793 290.313 179.509 290.313 179.509C290.313 179.509 291.412 180.807 293.31 180.298C294.666 179.929 295.104 178.768 295.242 178.134C295.937 179.676 297.491 180.756 299.299 180.756C300.947 180.756 302.386 179.861 303.154 178.528C303.373 179.166 303.867 179.998 304.975 180.298C306.872 180.807 307.971 179.509 307.971 179.509C307.971 179.509 307.645 181.789 308.787 183.096C309.929 184.398 311.981 183.91 311.981 183.91V190.941H314.858V190.933L315.218 190.941C315.218 190.941 315.291 186.091 315.291 181.557H315.287Z" fill="#F8E14C"/>
<path d="M295.305 191.087C295.305 192.068 294.708 192.865 293.97 192.865C293.232 192.865 292.635 192.068 292.635 191.087C292.635 190.106 293.232 189.309 293.97 189.309C294.708 189.309 295.305 190.106 295.305 191.087Z" fill="#54160C"/>
<path d="M305.081 191.087C305.081 192.068 304.484 192.865 303.745 192.865C303.007 192.865 302.41 192.068 302.41 191.087C302.41 190.106 303.007 189.309 303.745 189.309C304.484 189.309 305.081 190.106 305.081 191.087Z" fill="#54160C"/>
<path d="M298.972 189.309V194.339L301.981 194.12C301.981 194.12 302.359 197.647 298.972 197.647" stroke="#BC5B48" stroke-miterlimit="10"/>
<path d="M295.43 201.73C295.43 201.73 295.979 204.121 299.59 204.121C303.201 204.121 303.87 201.73 303.87 201.73" stroke="#BC5B48" stroke-miterlimit="10"/>
<path d="M296.396 175.383C297.04 177.075 299.157 178.048 300.862 177.427" stroke="#EFD384" stroke-miterlimit="10"/>
<path d="M297.805 174.157C298.354 175.486 300.145 176.12 301.407 175.434" stroke="#EFD384" stroke-miterlimit="10"/>
<path d="M304.695 175.109C305.12 176.458 306.365 177.517 307.774 177.718" stroke="#EFD384" stroke-miterlimit="10"/>
<path d="M310.371 178.318C309.993 179.676 310.831 181.253 312.17 181.703" stroke="#EFD384" stroke-miterlimit="10"/>
<path d="M293.477 175.233C293.108 176.621 291.725 177.671 290.287 177.658" stroke="#EFD384" stroke-miterlimit="10"/>
<path d="M288.058 178.969C288.097 180.139 287.165 181.266 286.006 181.45" stroke="#EFD384" stroke-miterlimit="10"/>
<path d="M292.257 186.75L291.836 187.586C291.721 187.813 291.613 188.014 291.497 188.212C291.381 188.409 291.257 188.597 291.111 188.807L290.574 189.574C290.269 189.317 290.141 188.949 290.119 188.589C290.102 188.229 290.201 187.865 290.385 187.556C290.57 187.248 290.84 186.986 291.167 186.828C291.493 186.673 291.875 186.609 292.249 186.75H292.257Z" fill="#F8E14C"/>
<path d="M305.777 186.75C306.151 186.609 306.533 186.673 306.859 186.828C307.185 186.986 307.456 187.243 307.64 187.556C307.825 187.865 307.924 188.229 307.907 188.589C307.885 188.949 307.761 189.317 307.452 189.574L306.915 188.807C306.769 188.597 306.644 188.404 306.528 188.212C306.413 188.014 306.305 187.813 306.189 187.586L305.769 186.75H305.777Z" fill="#F8E14C"/>
<path d="M299.345 198.101C301.667 197.99 304.024 198.748 305.823 200.188" stroke="#F8E14C" stroke-miterlimit="10"/>
<path d="M297.843 198.384C295.996 198.384 294.163 199.305 292.884 200.882" stroke="#F8E14C" stroke-miterlimit="10"/>
<path d="M301.646 200.188L302.247 201.653L305.776 201.568C305.776 201.568 304.742 197.99 299.663 197.81V197.801C299.594 197.801 299.53 197.801 299.461 197.805C299.392 197.805 299.328 197.801 299.259 197.801V197.81C294.18 197.99 293.146 201.568 293.146 201.568L299.259 201.717V201.726H299.461H299.663V201.717L301.487 201.67L301.642 200.184L301.646 200.188Z" fill="#F8E14C"/>
<path d="M297.86 198.628C297.319 199.13 296.941 199.879 296.825 200.685" stroke="#EFD384" stroke-miterlimit="10"/>
<path d="M298.941 198.388C298.448 199.237 298.151 200.244 298.087 201.272" stroke="#EFD384" stroke-miterlimit="10"/>
<path d="M300.156 198.645C300.156 199.297 300.199 199.952 300.276 200.599" stroke="#EFD384" stroke-miterlimit="10"/>
</g>
<path fill-rule="evenodd" clip-rule="evenodd" d="M209 307C204.582 307 201 310.582 201 315V363C201 367.418 204.582 371 209 371H216.494L231.491 385.406L234.016 371H267C271.418 371 275 367.418 275 363V315C275 310.582 271.418 307 267 307H209Z" fill="white"/>
<g clip-path="url(#clip3_2346_3510)">
<path d="M234.032 319.573C231.219 318.226 227.637 318.694 225.265 320.717C222.892 322.74 221.854 326.209 222.73 329.21" stroke="#B34937" stroke-miterlimit="10"/>
<path d="M225.323 324.862C228.029 318.235 235.74 314.09 242.742 315.5C244.44 315.843 246.072 316.469 247.613 317.266C248.939 317.956 250.206 318.78 251.267 319.834C253.132 321.695 254.273 324.258 254.417 326.89" stroke="#B34937" stroke-miterlimit="10"/>
<path d="M220.681 328.309C219.44 330.787 218.991 333.571 218.56 336.31C218.249 338.279 217.939 340.248 217.625 342.217C217.274 344.438 216.928 346.763 217.634 348.898C218.317 350.975 220.016 352.687 222.083 353.386" stroke="#B34937" stroke-miterlimit="10"/>
<path d="M247.546 317.257C236.019 313.405 230.199 321.055 230.199 321.055C224.155 321.055 219.252 325.966 219.252 332.03V349.691C219.252 355.751 224.15 360.666 230.199 360.666H247.815C253.859 360.666 258.762 355.755 258.762 349.691V332.03C258.762 332.03 259.077 321.109 247.55 317.262L247.546 317.257Z" fill="#B34937"/>
<path d="M239.995 326.552H238.836C230.126 326.552 223.066 333.63 223.066 342.361V347.191C223.066 355.922 230.126 363 238.836 363H239.995C248.704 363 255.764 355.922 255.764 347.191V342.361C255.764 333.63 248.704 326.552 239.995 326.552Z" fill="#FFC3A9"/>
<g style="mix-blend-mode:soft-light">
<mask id="mask3_2346_3510" style="mask-type:luminance" maskUnits="userSpaceOnUse" x="223" y="326" width="33" height="37">
<path d="M239.995 326.552H238.836C230.126 326.552 223.066 333.63 223.066 342.361V347.191C223.066 355.922 230.126 363 238.836 363H239.995C248.704 363 255.764 355.922 255.764 347.191V342.361C255.764 333.63 248.704 326.552 239.995 326.552Z" fill="white"/>
</mask>
<g mask="url(#mask3_2346_3510)">
<path d="M234.188 351.74C235.068 347.957 232.723 344.176 228.95 343.293C225.177 342.411 221.405 344.762 220.525 348.545C219.645 352.327 221.99 356.109 225.763 356.991C229.536 357.874 233.308 355.522 234.188 351.74Z" fill="#CC3333"/>
<path d="M258.828 351.682C259.677 347.892 257.301 344.13 253.521 343.279C249.741 342.428 245.988 344.81 245.139 348.599C244.29 352.389 246.666 356.151 250.446 357.003C254.226 357.854 257.979 355.472 258.828 351.682Z" fill="#CC3333"/>
</g>
</g>
<path d="M235.577 343.113C235.577 344.145 234.953 344.983 234.18 344.983C233.407 344.983 232.782 344.145 232.782 343.113C232.782 342.082 233.407 341.244 234.18 341.244C234.953 341.244 235.577 342.082 235.577 343.113Z" fill="#54160C"/>
<path d="M245.81 343.113C245.81 344.145 245.185 344.983 244.412 344.983C243.639 344.983 243.015 344.145 243.015 343.113C243.015 342.082 243.639 341.244 244.412 341.244C245.185 341.244 245.81 342.082 245.81 343.113Z" fill="#54160C"/>
<path d="M239.42 341.244V346.533L242.57 346.303C242.57 346.303 242.966 350.011 239.42 350.011" stroke="#E58765" stroke-miterlimit="10"/>
<path d="M233.713 350.025C233.713 350.025 237.407 356.404 243.478 352.949" stroke="#E58765" stroke-miterlimit="10"/>
<path d="M239.353 324.691C238.688 324.632 222.829 323.502 222.829 344.587H226.087L231.529 330.863C231.529 330.863 233.399 333.116 239.331 333.125C239.331 333.125 239.344 333.125 239.353 333.125C239.362 333.125 239.367 333.125 239.376 333.125C245.308 333.111 247.177 330.859 247.177 330.859L252.619 344.582H255.877C255.877 323.502 240.018 324.632 239.353 324.686V324.691Z" fill="#B34937"/>
<path d="M232.81 326.606C236.535 329.94 242.238 330.859 246.813 328.854" stroke="#71453B" stroke-miterlimit="10"/>
<path d="M234.293 324.993C237.533 327.516 242.031 328.322 245.941 327.079" stroke="#71453B" stroke-miterlimit="10"/>
<path d="M227.701 330.111C226.564 333.422 225.427 336.729 224.285 340.041" stroke="#71453B" stroke-miterlimit="10"/>
<path d="M225.31 330.102C224.465 332.67 223.615 335.234 222.771 337.802" stroke="#71453B" stroke-miterlimit="10"/>
<path d="M251.122 331.075C251.85 333.373 252.771 335.612 253.877 337.752" stroke="#71453B" stroke-miterlimit="10"/>
<path d="M252.089 329.962C252.974 332.017 253.859 334.071 254.745 336.13" stroke="#71453B" stroke-miterlimit="10"/>
<path d="M232.298 338.558L231.857 339.437C231.736 339.676 231.624 339.888 231.502 340.095C231.381 340.302 231.251 340.5 231.098 340.721L230.536 341.527C230.217 341.257 230.082 340.87 230.06 340.491C230.042 340.113 230.145 339.73 230.338 339.405C230.531 339.081 230.815 338.806 231.156 338.64C231.498 338.477 231.898 338.41 232.289 338.558H232.298Z" fill="#54160C"/>
<path d="M246.448 338.558C246.839 338.41 247.239 338.477 247.581 338.64C247.922 338.806 248.206 339.077 248.399 339.405C248.592 339.73 248.695 340.113 248.677 340.491C248.655 340.87 248.525 341.257 248.201 341.527L247.639 340.721C247.487 340.5 247.356 340.298 247.235 340.095C247.114 339.888 247.001 339.676 246.88 339.437L246.439 338.558H246.448Z" fill="#54160C"/>
</g>
<path fill-rule="evenodd" clip-rule="evenodd" d="M132 231C136.418 231 140 234.582 140 239V287C140 291.418 136.418 295 132 295H124.506L109.509 309.406L106.984 295H74C69.5817 295 66 291.418 66 287V239C66 234.582 69.5817 231 74 231H132Z" fill="white"/>
<g clip-path="url(#clip4_2346_3510)">
<path d="M103.127 243.913C105.347 241.534 108.593 240.181 111.82 240.29" stroke="#71453B" stroke-miterlimit="10"/>
<path d="M103.36 244.221C103.668 241.492 103.976 238.758 104.284 236.028" stroke="#71453B" stroke-miterlimit="10"/>
<path d="M102.926 243.894C101.9 241.274 99.3258 239.349 96.5508 239.131" stroke="#71453B" stroke-miterlimit="10"/>
<path d="M112.045 242.239H92.9554C86.9049 242.239 82 247.213 82 253.35V273.429C82 279.566 86.9049 284.54 92.9554 284.54H112.045C118.095 284.54 123 279.566 123 273.429V253.35C123 247.213 118.095 242.239 112.045 242.239Z" fill="#71453B"/>
<path d="M103.099 248.733H101.896C92.8574 248.733 85.5303 256.165 85.5303 265.331V270.402C85.5303 279.569 92.8574 287 101.896 287H103.099C112.137 287 119.465 279.569 119.465 270.402V265.331C119.465 256.165 112.137 248.733 103.099 248.733Z" fill="#FFC8B0"/>
<g style="mix-blend-mode:soft-light">
<mask id="mask4_2346_3510" style="mask-type:luminance" maskUnits="userSpaceOnUse" x="85" y="248" width="35" height="39">
<path d="M103.099 248.733H101.896C92.8574 248.733 85.5303 256.165 85.5303 265.331V270.402C85.5303 279.569 92.8574 287 101.896 287H103.099C112.137 287 119.465 279.569 119.465 270.402V265.331C119.465 256.165 112.137 248.733 103.099 248.733Z" fill="white"/>
</mask>
<g mask="url(#mask4_2346_3510)">
<path d="M95.0144 278.836C97.9209 276.018 98.0246 271.344 95.2462 268.397C92.4678 265.449 87.8594 265.344 84.953 268.162C82.0465 270.979 81.9428 275.653 84.7212 278.601C87.4996 281.549 92.108 281.654 95.0144 278.836Z" fill="#71453B"/>
<path d="M120.696 278.72C123.539 275.836 123.539 271.161 120.696 268.278C117.853 265.394 113.243 265.394 110.4 268.278C107.557 271.161 107.557 275.836 110.4 278.72C113.243 281.603 117.853 281.603 120.696 278.72Z" fill="#71453B"/>
</g>
</g>
<path d="M98.5152 266.117C98.5152 267.2 97.8669 268.08 97.0647 268.08C96.2625 268.08 95.6143 267.2 95.6143 266.117C95.6143 265.033 96.2625 264.154 97.0647 264.154C97.8669 264.154 98.5152 265.033 98.5152 266.117Z" fill="#54160C"/>
<path d="M109.134 266.117C109.134 267.2 108.486 268.08 107.684 268.08C106.882 268.08 106.233 267.2 106.233 266.117C106.233 265.033 106.882 264.154 107.684 264.154C108.486 264.154 109.134 265.033 109.134 266.117Z" fill="#54160C"/>
<path d="M102.498 264.158V269.711L105.767 269.47C105.767 269.47 106.178 273.363 102.498 273.363" stroke="#D3671E" stroke-miterlimit="10"/>
<path d="M110.585 273.377C110.585 273.377 106.751 280.075 100.45 276.447" stroke="#D3671E" stroke-miterlimit="10"/>
<path d="M120.272 265.941C120.272 242.206 102.456 242.239 102.456 242.239C102.456 242.239 84.6396 242.201 84.6396 265.941C84.6396 265.941 93.3751 261.665 94.9794 255.635L94.4851 262.304C94.4851 262.304 102.456 258.884 102.456 252.04C102.456 258.884 110.426 262.304 110.426 262.304L109.932 255.635C111.536 261.665 120.272 265.941 120.272 265.941Z" fill="#71453B"/>
<path d="M94.4666 248.639C92.6151 252.669 89.5183 256.103 85.7266 258.331" stroke="#8E5147" stroke-miterlimit="10"/>
<path d="M97.7449 248.331C97.7122 250.592 97.2645 252.844 96.4297 254.939" stroke="#8E5147" stroke-miterlimit="10"/>
<path d="M99.7974 247.887C99.8254 249.878 99.5315 251.874 98.9346 253.776" stroke="#8E5147" stroke-miterlimit="10"/>
<path d="M105.151 247.452C105.72 249.859 106.289 252.262 106.858 254.67" stroke="#8E5147" stroke-miterlimit="10"/>
<path d="M108.216 248.185C109.68 252.219 112.334 255.805 115.748 258.359" stroke="#8E5147" stroke-miterlimit="10"/>
<path d="M112.217 249.088C113.098 251.297 114.246 253.393 115.621 255.322C116.12 256.022 116.694 256.732 117.496 257.016" stroke="#8E5147" stroke-miterlimit="10"/>
<path d="M95.4223 261.334L94.9653 262.257C94.8394 262.507 94.7228 262.73 94.5968 262.947C94.4709 263.165 94.3357 263.373 94.1771 263.605L93.5941 264.452C93.263 264.168 93.1231 263.761 93.0997 263.364C93.0811 262.966 93.1884 262.564 93.3889 262.224C93.5894 261.883 93.8833 261.595 94.2377 261.42C94.5922 261.249 95.0073 261.178 95.413 261.334H95.4223Z" fill="#71453B"/>
<path d="M110.109 261.334C110.515 261.178 110.93 261.249 111.284 261.42C111.639 261.595 111.933 261.878 112.133 262.224C112.334 262.564 112.441 262.966 112.422 263.364C112.399 263.761 112.264 264.168 111.928 264.452L111.345 263.605C111.186 263.373 111.051 263.16 110.925 262.947C110.799 262.73 110.683 262.507 110.557 262.257L110.1 261.334H110.109Z" fill="#71453B"/>
</g>
<defs>
<clipPath id="clip0_2346_3510">
<rect width="174" height="41" fill="white" transform="translate(223 85)"/>
</clipPath>
<clipPath id="clip1_2346_3510">
<rect width="51" height="46" fill="white" transform="translate(63 76)"/>
</clipPath>
<clipPath id="clip2_2346_3510">
<rect width="38" height="42" fill="white" transform="translate(280 168)"/>
</clipPath>
<clipPath id="clip3_2346_3510">
<rect width="42" height="48" fill="white" transform="translate(217 315)"/>
</clipPath>
<clipPath id="clip4_2346_3510">
<rect width="41" height="51" fill="white" transform="translate(82 236)"/>
</clipPath>
</defs>
</svg>
