<svg width="20" height="19" viewBox="0 0 20 19" fill="none" xmlns="http://www.w3.org/2000/svg">
<path id="Vector" fill-rule="evenodd" clip-rule="evenodd" d="M15.0093 2.58932C15.3368 2.27681 15.7746 2.10755 16.2265 2.11878C16.6784 2.13001 17.1073 2.32082 17.4189 2.64921C17.7305 2.97761 17.8993 3.4167 17.8881 3.86989C17.8769 4.32308 17.6866 4.75325 17.3592 5.06576L5.65237 16.2659L2.63556 16.6635L3.87231 13.1948L15.0083 2.59038L15.0093 2.58932ZM18.9468 1.18784C18.2492 0.453418 17.2894 0.0266469 16.2783 0.00120594C15.2672 -0.024235 14.2873 0.353733 13.5538 1.05214L2.23177 11.8315C2.11176 11.9457 2.02015 12.0866 1.96434 12.2428L0.0616544 17.5826C0.000708714 17.7537 -0.0153997 17.9375 0.0148738 18.1166C0.0451473 18.2957 0.120788 18.4639 0.23454 18.6053C0.348293 18.7466 0.496343 18.8562 0.664493 18.9237C0.832643 18.9911 1.01525 19.0141 1.19481 18.9905L6.26863 18.3226C6.49088 18.2936 6.69817 18.1944 6.86058 18.0395L18.8168 6.60082C19.5495 5.90009 19.9747 4.9362 19.9989 3.92111C20.0231 2.90602 19.6453 1.92286 18.9468 1.18784ZM11.6289 16.8798C11.3486 16.8798 11.0797 16.9914 10.8815 17.1903C10.6832 17.3891 10.5719 17.6587 10.5719 17.9399C10.5719 18.221 10.6832 18.4907 10.8815 18.6895C11.0797 18.8883 11.3486 19 11.6289 19H17.9712C18.2515 19 18.5204 18.8883 18.7186 18.6895C18.9169 18.4907 19.0282 18.221 19.0282 17.9399C19.0282 17.6587 18.9169 17.3891 18.7186 17.1903C18.5204 16.9914 18.2515 16.8798 17.9712 16.8798H11.6289Z" fill="#355FFF"/>
</svg>
