<svg width="302" height="264" viewBox="0 0 302 264" fill="none" xmlns="http://www.w3.org/2000/svg">
<g clip-path="url(#clip0_94_90)">
<path d="M211.203 260.073L206.623 260.072L204.444 242.4L211.203 242.4L211.203 260.073Z" fill="#FFB6B6"/>
<path d="M195.511 259.969C195.368 260.209 195.293 260.985 195.293 261.264C195.293 262.123 195.989 262.819 196.847 262.819H211.031C211.617 262.819 212.091 262.344 212.091 261.758V261.168C212.091 261.168 212.793 259.392 211.349 257.204C211.349 257.204 209.553 258.917 206.87 256.233L206.079 254.8L200.353 258.989L197.178 259.38C196.484 259.466 195.868 259.367 195.511 259.969Z" fill="#2F2E41"/>
<path d="M259.55 254.341L255.365 256.202L246.197 240.939L252.374 238.192L259.55 254.341Z" fill="#FFB6B6"/>
<path d="M245.169 260.623C245.137 260.901 245.383 261.64 245.496 261.895C245.845 262.68 246.764 263.034 247.548 262.685L260.509 256.92C261.044 256.682 261.285 256.055 261.047 255.52L260.807 254.98C260.807 254.98 260.727 253.073 258.519 251.66C258.519 251.66 257.574 253.955 254.032 252.593L252.727 251.605L249.196 257.761L246.454 259.408C245.854 259.768 245.251 259.928 245.169 260.623Z" fill="#2F2E41"/>
<path d="M201.248 149.489L197.176 158.044L204.099 246.851H212.756L216.315 188.597L247.384 246.851H258.004L241.969 205.299L230.974 151.119L201.248 149.489Z" fill="#2F2E41"/>
<path d="M223.052 94.6271H212.314L208.376 100.809L199.494 105.059L201.425 131.717L200.456 151.154L201.783 151.116C211.259 150.839 220.731 152.381 229.525 155.924C231.781 156.832 234.146 157.339 236.182 156.83C236.182 156.83 235.41 153.739 234.638 152.967C233.865 152.194 233.479 151.555 233.865 151.102C234.251 150.648 235.024 150.262 234.251 149.489C233.479 148.717 233.479 147.743 233.479 147.743L231.162 130.558L235.796 106.218L226.141 100.809L223.052 94.6271Z" fill="#6C63FF"/>
<path d="M241.503 128.329L241.21 151.129L235.54 171.453L231.007 169.761L233.02 151.132L232.755 125.922L241.503 128.329Z" fill="#FFB6B6"/>
<path d="M235.52 174.73C236.052 171.808 235.077 169.182 233.343 168.866C231.608 168.55 229.771 170.663 229.239 173.586C228.707 176.508 229.682 179.134 231.416 179.45C233.151 179.765 234.988 177.652 235.52 174.73Z" fill="#FFB6B6"/>
<path d="M233.479 105.059C233.479 105.059 239.877 106.05 239.961 111.543C240.044 117.036 246.223 125.922 242.361 132.876L232.32 134.422L226.914 114.718L233.093 104.286" fill="#6C63FF"/>
<path d="M204.275 124.314L191.525 143.213L175.636 157.091L172.774 153.189L184.675 138.72L198.282 117.499L204.275 124.314Z" fill="#FFB6B6"/>
<path d="M173.822 159.82C175.87 157.669 176.495 154.939 175.218 153.723C173.942 152.507 171.247 153.265 169.199 155.416C167.151 157.567 166.526 160.297 167.803 161.513C169.08 162.73 171.775 161.972 173.822 159.82Z" fill="#FFB6B6"/>
<path d="M210.332 100.455C210.332 100.455 215.137 104.796 212.194 109.434C209.251 114.072 209.543 124.893 202.499 128.586L193.257 124.366C194.036 116.747 194.49 108.848 199.545 104.926L210.433 99.5971" fill="#6C63FF"/>
<path d="M216.017 93.0348C221.323 93.0348 225.625 88.7315 225.625 83.4232C225.625 78.1148 221.323 73.8116 216.017 73.8116C210.711 73.8116 206.409 78.1148 206.409 83.4232C206.409 88.7315 210.711 93.0348 216.017 93.0348Z" fill="#FFB6B6"/>
<path d="M223.073 91.3205C223.602 91.4108 224.224 90.1275 224.817 88.8777C226.06 86.2613 226.85 84.5981 226.91 82.2471C226.962 80.2434 226.405 80.7693 225.864 76.3145C225.685 74.8452 223.176 74.8481 222.666 74.1504C221.803 72.9718 223.126 72.4858 220.98 71.7778C216.96 70.4518 215.142 72.5118 212.589 72.6892C212.525 72.6937 211.259 73.9319 210.552 73.996C209.314 74.1081 207.527 73.9152 206.726 72.0276C205.978 70.2626 205.482 75.4201 206.151 76.0584C206.719 76.6003 207.7 77.9605 207.725 78.0594C207.753 78.1714 205.394 75.5568 205 76.6342C204.716 77.4097 205.608 81.3992 206.329 81.5492C206.932 81.6745 208.406 79.6871 208.073 80.5022C207.302 82.3926 211.94 83.5987 217.492 79.8043C217.689 79.6697 217.503 79.8843 218.19 81.5492C219.056 83.6489 219.251 83.7626 219.236 84.341C219.203 85.5929 218.264 85.9615 218.538 86.7838C218.761 87.4498 219.63 87.9654 220.283 87.8307C221.019 87.6787 221.145 86.7676 221.678 86.7838C222.134 86.7977 222.676 87.4855 222.724 88.1797C222.826 89.6422 220.662 90.0444 220.283 92.0184C220.069 93.1325 222.587 91.2375 223.073 91.3205Z" fill="#2F2E41"/>
<path d="M147.015 263.257H64.46C52.0777 263.257 42.0039 253.179 42.0039 240.792V22.4652C42.0039 10.0779 52.0777 0 64.46 0H147.015C159.397 0 169.471 10.0779 169.471 22.4652C171.008 110.138 173.628 208.319 169.471 240.792C169.471 253.179 159.397 263.257 147.015 263.257Z" fill="#3F3D56"/>
<path d="M170.622 80.3077C170.098 80.3077 169.672 80.7339 169.672 81.2581V111.67C169.672 112.195 170.098 112.621 170.622 112.621C171.146 112.621 171.572 112.195 171.572 111.67V81.2581C171.572 80.7339 171.146 80.3077 170.622 80.3077Z" fill="#3F3D56"/>
<path d="M167.334 22.4653V240.788C167.334 251.57 158.945 260.39 148.339 261.074H148.334C148.177 261.083 148.02 261.093 147.859 261.098C147.578 261.112 147.298 261.117 147.013 261.117C147.013 261.117 145.968 261.041 144.059 260.898C142.13 260.756 139.323 260.542 135.822 260.261C134.773 260.181 133.666 260.09 132.497 259.995C130.17 259.805 127.614 259.596 124.873 259.358C123.781 259.268 122.65 259.168 121.496 259.069C115.597 258.56 108.989 257.966 102.021 257.291C100.843 257.182 99.6557 257.068 98.4587 256.949C98.1452 256.916 44.1416 243.335 44.1416 240.788V22.4653C44.1416 11.2366 53.2379 2.1366 64.4621 2.1366H76.5936C78.5317 2.1366 80.0896 3.64771 80.2559 5.58175C80.2701 5.71006 80.2844 5.83834 80.3082 5.96665C80.6596 7.9102 82.4409 9.26449 84.4169 9.26449H127.059C129.035 9.26449 130.816 7.9102 131.167 5.96665C131.191 5.83834 131.205 5.71006 131.22 5.58175C131.386 3.64771 132.944 2.1366 134.882 2.1366H147.013C158.238 2.1366 167.334 11.2366 167.334 22.4653Z" fill="white"/>
<path d="M41.5291 57.4984C41.0052 57.4984 40.5791 57.9247 40.5791 58.4488V66.0519C40.5791 66.576 41.0052 67.0023 41.5291 67.0023C42.053 67.0023 42.4791 66.576 42.4791 66.0519V58.4488C42.4791 57.9246 42.053 57.4984 41.5291 57.4984Z" fill="#3F3D56"/>
<path d="M41.5291 80.3077C41.0052 80.3077 40.5791 80.7339 40.5791 81.2581V95.989C40.5791 96.5132 41.0052 96.9394 41.5291 96.9394C42.053 96.9394 42.4791 96.5132 42.4791 95.989V81.2581C42.4791 80.7339 42.053 80.3077 41.5291 80.3077Z" fill="#3F3D56"/>
<path d="M41.5291 101.216C41.0052 101.216 40.5791 101.642 40.5791 102.167V116.897C40.5791 117.422 41.0052 117.848 41.5291 117.848C42.053 117.848 42.4791 117.422 42.4791 116.897V102.167C42.4791 101.642 42.053 101.216 41.5291 101.216Z" fill="#3F3D56"/>
<path d="M76.263 5.46478H58.0951C57.9964 5.46478 57.9165 5.54476 57.9165 5.64341V7.66212C57.9165 7.76077 57.9964 7.84075 58.0951 7.84075H76.263C76.3616 7.84075 76.4415 7.76077 76.4415 7.66212V5.64341C76.4415 5.54476 76.3616 5.46478 76.263 5.46478Z" fill="#E6E6E6"/>
<path d="M137.884 7.84076C138.933 7.84076 139.784 6.98975 139.784 5.93999C139.784 4.89022 138.933 4.03922 137.884 4.03922C136.835 4.03922 135.984 4.89022 135.984 5.93999C135.984 6.98975 136.835 7.84076 137.884 7.84076Z" fill="#E6E6E6"/>
<path d="M143.109 7.84076C144.158 7.84076 145.009 6.98975 145.009 5.93999C145.009 4.89022 144.158 4.03922 143.109 4.03922C142.06 4.03922 141.209 4.89022 141.209 5.93999C141.209 6.98975 142.06 7.84076 143.109 7.84076Z" fill="#E6E6E6"/>
<path d="M148.334 7.84076C149.383 7.84076 150.234 6.98975 150.234 5.93999C150.234 4.89022 149.383 4.03922 148.334 4.03922C147.284 4.03922 146.434 4.89022 146.434 5.93999C146.434 6.98975 147.284 7.84076 148.334 7.84076Z" fill="#E6E6E6"/>
<path d="M148.938 174.895C148.938 153.229 130.633 141.311 109.724 135.665C82.9165 128.428 63.2833 143.073 70.5102 174.895C75.3084 196.022 99.6634 227.553 109.724 208.366C121.236 186.412 148.938 196.561 148.938 174.895Z" fill="#D992FA"/>
<path d="M0 263.315C0 263.695 0.305085 264 0.684998 264H301.315C301.695 264 302 263.695 302 263.315C302 262.935 301.695 262.63 301.315 262.63H0.684998C0.305085 262.63 0 262.935 0 263.315Z" fill="#CCCCCC"/>
<path d="M96.2469 171.028L91.5098 168.783C93.4527 171.495 95.1269 175.732 96.0233 179.103C97.5408 175.963 99.9873 172.12 102.409 169.825L97.4022 171.114C100.487 155.988 112.091 145.129 125.379 145.129L125.567 144.582C111.687 144.582 99.3969 155.291 96.2469 171.028Z" fill="#3F3D56"/>
<path d="M118.05 194.075H88.1188C86.8493 194.075 85.8164 193.041 85.8164 191.771C85.8164 190.501 86.8493 189.468 88.1188 189.468H118.05C119.32 189.468 120.352 190.501 120.352 191.771C120.352 193.041 119.32 194.075 118.05 194.075Z" fill="#D3E525"/>
<path d="M146.03 74.7001V135.738C146.03 141.136 141.64 145.528 136.245 145.528H75.231C69.8353 145.528 65.4458 141.136 65.4458 135.738V74.7001C65.4458 69.3022 69.8353 64.9109 75.231 64.9109H136.245C141.64 64.9109 146.03 69.3022 146.03 74.7001ZM136.245 144.376C141.013 144.376 144.879 140.509 144.879 135.738V104.965C144.879 83.4799 127.468 66.0626 105.992 66.0626H75.231C70.4626 66.0626 66.597 69.9297 66.597 74.7001V135.738C66.597 140.509 70.4626 144.376 75.231 144.376H136.245Z" fill="#3F3D56"/>
<path d="M113.86 89.84H94.1624C93.6658 89.84 93.2617 89.4358 93.2617 88.939C93.2617 88.4422 93.6658 88.0381 94.1624 88.0381H113.86C114.356 88.0381 114.76 88.4422 114.76 88.939C114.76 89.4358 114.356 89.84 113.86 89.84Z" fill="#3F3D56"/>
<path d="M113.86 109.052H94.1624C93.6658 109.052 93.2617 108.648 93.2617 108.151C93.2617 107.654 93.6658 107.25 94.1624 107.25H113.86C114.356 107.25 114.76 107.654 114.76 108.151C114.76 108.648 114.356 109.052 113.86 109.052Z" fill="#3F3D56"/>
<path d="M104.075 135.54H84.3772C83.8806 135.54 83.4766 135.136 83.4766 134.639C83.4766 134.142 83.8806 133.738 84.3772 133.738H104.075C104.571 133.738 104.975 134.142 104.975 134.639C104.975 135.136 104.571 135.54 104.075 135.54Z" fill="#3F3D56"/>
<path d="M124.43 99.4522H83.5925C83.096 99.4522 82.6919 99.048 82.6919 98.5512C82.6919 98.0544 83.096 97.6504 83.5925 97.6504H124.43C124.926 97.6504 125.33 98.0544 125.33 98.5512C125.33 99.048 124.926 99.4522 124.43 99.4522Z" fill="#3F3D56"/>
</g>
<defs>
<clipPath id="clip0_94_90">
<rect width="302" height="264" fill="white"/>
</clipPath>
</defs>
</svg>
