<svg width="330" height="256" viewBox="0 0 330 256" fill="none" xmlns="http://www.w3.org/2000/svg">
<g clip-path="url(#clip0_94_132)">
<path d="M238.062 47.3969H213.892V8.91431L238.062 16.6108V47.3969Z" fill="#2F2E41"/>
<path d="M242.353 242.785L237.365 242.902L234.585 220.544L241.946 220.37L242.353 242.785Z" fill="#A0616A"/>
<path d="M225.24 253.167C225.24 254.008 225.838 254.69 226.576 254.69H236.476C236.476 254.69 237.451 250.782 241.423 249.1L241.697 254.69H246.804L246.186 245.702C246.186 245.702 247.552 240.894 244.714 238.436C241.877 235.979 244.175 236.321 244.175 236.321L243.059 230.758L235.341 231.664L235.285 240.396L231.539 249.063L226.046 251.77C225.557 252.011 225.24 252.56 225.24 253.167Z" fill="#2F2E41"/>
<path d="M216.79 242.785L211.802 242.902L209.022 220.544L216.383 220.37L216.79 242.785Z" fill="#A0616A"/>
<path d="M199.677 253.167C199.677 254.008 200.275 254.69 201.013 254.69H210.913C210.913 254.69 211.888 250.782 215.86 249.1L216.134 254.69H221.241L220.623 245.702C220.623 245.702 221.989 240.894 219.151 238.436C216.314 235.979 218.612 236.321 218.612 236.321L217.496 230.758L209.778 231.664L209.722 240.396L205.976 249.063L200.483 251.77C199.994 252.011 199.677 252.56 199.677 253.167Z" fill="#2F2E41"/>
<path d="M239.605 89.4712L207.721 108.456L200.521 137.703L204.121 228.009H219.909L223.406 141.038L230.405 228.009H246.44L250.495 130.344C251.612 123.246 250.731 115.978 247.949 109.351L239.605 89.4712Z" fill="#2F2E41"/>
<path d="M232.405 31.4908L219.035 30.4646L215.435 37.648L205.15 40.2135L202.579 72.0258C207.665 85.2116 210.858 97.8122 207.721 108.456L246.804 106.404L240.279 88.7985C240.279 88.7985 240.119 82.2878 243.719 73.5651C247.318 64.8423 241.662 42.2659 241.662 42.2659L233.434 40.2135L232.405 31.4908Z" fill="#6C63FF"/>
<path d="M142.378 43.8657C143.68 43.9059 144.883 43.6495 145.829 43.19L158.207 44.3551L158.591 38.462L145.993 37.9146C145.077 37.3976 143.892 37.0673 142.59 37.027C139.616 36.9351 137.157 38.3914 137.099 40.2799C137.04 42.1683 139.404 43.7737 142.378 43.8657Z" fill="#A0616A"/>
<path d="M215.6 61.856C215.6 61.856 215.162 43.0825 211.036 40.2647C209.334 39.1026 183.165 38.8386 182.211 38.74C176.332 38.1321 172.149 35.8031 167.198 35.5479C155.135 34.9258 149.036 37.8467 149.036 37.8467L148.823 43.8741L215.6 61.856Z" fill="#6C63FF"/>
<path d="M224.581 29.9781C230.477 29.9781 235.257 25.2089 235.257 19.3258C235.257 13.4427 230.477 8.67343 224.581 8.67343C218.685 8.67343 213.905 13.4427 213.905 19.3258C213.905 25.2089 218.685 29.9781 224.581 29.9781Z" fill="#A0616A"/>
<path d="M221.343 3.46381C219.047 4.90813 217.365 3.87407 215.725 4.6025C212.52 6.02569 207.109 16.0217 207.597 20.2067C208.288 26.1337 210.472 26.3777 210.406 30.6301C210.302 37.4584 209.758 37.43 211.16 39.8143C212.718 42.4661 221.547 41.746 223.187 38.15C223.51 37.4406 219.918 37.7196 215.949 28.4122C213.958 23.7417 215.265 19.4858 215.949 17.637C216.109 17.2042 216.183 14.1313 216.524 14.4723C219.521 17.4626 221.201 15.2767 223.011 15.0259C226.725 14.5111 229.522 17.5006 230.648 16.4273C231.487 15.6287 230.417 13.5171 230.824 13.3616C231.258 13.1959 232.693 15.5125 233.633 18.004C234.239 19.6107 234.542 20.4141 234.511 21.3325C234.414 24.1686 233.69 32.2099 232.405 34.5694C229.632 39.6646 233.124 41.5872 235.301 41.2157C237.06 40.9156 244.836 42.0971 245.262 41.2397C245.641 40.4758 244.775 32.6184 243.865 25.3136C242.771 16.5336 238.387 8.46531 231.513 2.87612C231.11 2.54835 230.809 2.32347 230.648 2.23754C230.268 2.03401 226.342 0.000253975 223.45 1.6244C222.385 2.22232 222.558 2.69931 221.343 3.46381Z" fill="#2F2E41"/>
<path d="M87.9787 251.101L82.0552 251.1L79.2373 228.303L87.9799 228.303L87.9787 251.101Z" fill="#FFB6B6"/>
<path d="M67.6841 250.966C67.4997 251.276 67.4023 252.277 67.4023 252.637C67.4023 253.745 68.3024 254.643 69.4128 254.643H87.7574C88.5148 254.643 89.1289 254.03 89.1289 253.275V252.513C89.1289 252.513 90.0364 250.222 88.168 247.399C88.168 247.399 85.8459 249.61 82.3761 246.148L81.3529 244.298L73.9461 249.703L69.8407 250.207C68.9425 250.317 68.1461 250.19 67.6841 250.966Z" fill="#2F2E41"/>
<path d="M112.953 251.101L107.03 251.1L104.212 228.303L112.955 228.303L112.953 251.101Z" fill="#FFB6B6"/>
<path d="M92.6587 250.966C92.4743 251.276 92.377 252.277 92.377 252.637C92.377 253.745 93.2771 254.643 94.3874 254.643H112.732C113.489 254.643 114.104 254.03 114.104 253.275V252.513C114.104 252.513 115.011 250.222 113.143 247.399C113.143 247.399 110.821 249.61 107.351 246.148L106.327 244.298L98.9207 249.703L94.8153 250.207C93.9171 250.317 93.1207 250.19 92.6587 250.966Z" fill="#2F2E41"/>
<path d="M114.129 107.17L70.6727 106.672L66.1772 135.079L77.1661 233.26H91.5727L94.8981 141.808L100.892 235.004H115.643L122.37 128.85L114.129 107.17Z" fill="#2F2E41"/>
<path d="M298.358 247.185C299.39 247.25 299.96 245.97 299.179 245.225L299.102 244.917C299.112 244.892 299.122 244.867 299.132 244.843C300.176 242.36 303.713 242.377 304.747 244.864C305.666 247.07 306.835 249.281 307.123 251.615C307.252 252.645 307.194 253.694 306.965 254.705C309.117 250.015 310.249 244.893 310.249 239.743C310.249 238.449 310.178 237.155 310.033 235.864C309.913 234.808 309.749 233.759 309.536 232.719C308.384 227.099 305.89 221.746 302.293 217.275C300.564 216.332 299.122 214.857 298.251 213.09C297.938 212.453 297.693 211.767 297.577 211.069C297.773 211.094 298.319 208.104 298.17 207.921C298.445 207.505 298.935 207.299 299.235 206.894C300.725 204.879 302.777 205.23 303.848 207.969C306.137 209.121 306.159 211.033 304.755 212.871C303.861 214.041 303.739 215.624 302.955 216.876C303.035 216.979 303.119 217.078 303.2 217.181C304.679 219.074 305.958 221.109 307.037 223.246C306.732 220.871 307.182 218.009 307.949 216.164C308.822 214.062 310.459 212.292 311.9 210.475C313.631 208.293 317.181 209.245 317.486 212.012C317.489 212.039 317.492 212.066 317.495 212.092C317.281 212.213 317.071 212.341 316.866 212.476C315.698 213.247 316.102 215.055 317.486 215.268L317.518 215.273C317.44 216.042 317.308 216.805 317.114 217.555C318.963 224.69 314.971 227.288 309.272 227.405C309.146 227.469 309.023 227.534 308.897 227.595C309.475 229.217 309.936 230.881 310.278 232.568C310.585 234.058 310.798 235.565 310.917 237.078C311.065 238.987 311.052 240.905 310.891 242.811L310.901 242.743C311.31 240.644 312.453 238.684 314.111 237.326C316.581 235.301 320.071 234.555 322.736 232.928C324.019 232.144 325.663 233.157 325.439 234.641L325.428 234.712C325.031 234.873 324.644 235.06 324.27 235.269C324.056 235.389 323.846 235.517 323.641 235.652C322.473 236.424 322.877 238.231 324.261 238.444L324.293 238.449C324.315 238.452 324.334 238.456 324.357 238.459C323.676 240.071 322.728 241.568 321.541 242.859C320.384 249.087 315.419 249.678 310.107 247.864H310.104C309.523 250.388 308.675 252.854 307.584 255.204H298.583C298.551 255.104 298.522 255.001 298.493 254.901C299.325 254.953 300.164 254.904 300.984 254.753C300.316 253.935 299.648 253.111 298.98 252.294C298.964 252.278 298.951 252.262 298.938 252.245C298.599 251.827 298.257 251.412 297.919 250.993L297.918 250.993C297.897 249.708 298.052 248.428 298.358 247.185Z" fill="#F2F2F2"/>
<path d="M0 255.407C0 255.736 0.264746 256 0.594427 256H329.406C329.735 256 330 255.736 330 255.407C330 255.078 329.735 254.814 329.406 254.814H0.594427C0.264746 254.814 0 255.078 0 255.407Z" fill="#CCCCCC"/>
<path d="M99.3935 32.6631H83.9269L80.9123 38.6436L66.1772 45.3952L71.4219 83.9959L67.426 109.413H117.342L112.88 80.0089L118.874 44.6241L102.39 38.1452L99.3935 32.6631Z" fill="#E6E6E6"/>
<path d="M151.165 126.2C150.49 124.826 150.182 123.415 150.217 122.18L142.963 109.504L149.109 106.236L155.806 119.447C156.806 120.176 157.735 121.283 158.41 122.656C159.951 125.793 159.578 129.129 157.577 130.108C155.577 131.086 152.706 129.337 151.165 126.2Z" fill="#FFB6B6"/>
<path d="M103.349 42.9231C103.349 42.9231 108.243 37.8992 113.733 41.3953C119.222 44.8913 139.248 80.6667 139.248 80.6667L154.696 111.423L143.792 116.491L130.637 87.0398L103.01 57.3758L103.349 42.9231Z" fill="#E6E6E6"/>
<path d="M91.0052 29.748C98.7184 29.748 104.971 23.5091 104.971 15.8131C104.971 8.11706 98.7184 1.8782 91.0052 1.8782C83.2919 1.8782 77.0391 8.11706 77.0391 15.8131C77.0391 23.5091 83.2919 29.748 91.0052 29.748Z" fill="#FFB6B6"/>
<path d="M86.622 27.028C86.6866 28.3932 86.7189 29.0758 86.5087 29.1583C85.876 29.4066 77.7279 24.6053 76.7685 21.4092C76.321 19.9185 76.6988 19.8888 76.3722 15.6478C76.0598 11.5917 75.7096 11.5594 76.1236 10.5558C76.5839 9.44048 77.9893 8.06627 80.8003 5.31784C81.8631 4.27864 82.3945 3.75903 82.73 3.49039C83.7467 2.67616 87.5344 -0.357121 91.0076 0.0347676C92.4634 0.199037 92.2146 0.778988 97.6532 3.72172C98.1217 3.97519 98.7498 4.30978 99.6174 4.69393C101.727 5.62825 103.036 5.87047 103.725 6.13102C107.902 7.7101 106.676 16.5063 106.317 16.5568C106.186 16.5751 106.151 15.4345 105.466 15.3402C104.849 15.2553 104.456 16.1215 103.895 16.153C102.364 16.2391 104.064 14.7766 100.317 13.1524C98.8603 12.521 102.914 15.368 99.055 15.3217C93.0207 15.2495 96.88 15.6327 94.5883 16.8338C92.9171 17.7097 86.1938 12.8892 86.467 14.4295C86.6596 15.516 87.4498 15.8288 87.3358 17.0459C87.2254 18.2251 86.3372 19.496 85.5538 19.5427C84.8317 19.5858 84.436 18.5747 84.1951 18.6715C83.9331 18.7767 84.2209 20.0455 84.7858 21.349C85.503 23.0038 85.9311 23.0167 86.3094 24.2894C86.527 25.0215 86.5586 25.6903 86.622 27.028Z" fill="#2F2E41"/>
<path d="M196.697 122.108L106.71 99.2638C100.957 97.8035 97.4682 91.946 98.9317 86.2065L110.127 42.304C111.59 36.5645 117.461 33.083 123.213 34.5433L213.201 57.3874C218.953 58.8476 222.443 64.7052 220.979 70.4447L209.784 114.347C208.32 120.087 202.45 123.568 196.697 122.108Z" fill="white"/>
<path d="M196.698 122.108L106.71 99.2638C103.834 98.5337 101.523 96.7042 99.873 94.2784C97.4717 90.749 96.8451 86.3055 97.8993 82.1714L107.287 45.3561C108.341 41.2219 111.02 37.6175 114.82 35.6623C117.432 34.3185 120.337 33.8132 123.214 34.5433L213.201 57.3874C218.963 58.85 222.445 64.696 220.979 70.4447L209.784 114.347C208.321 120.087 202.45 123.568 196.698 122.108ZM122.967 35.5093C117.74 34.1824 119.106 38.9057 117.777 44.1209C111.288 69.5653 124.708 95.8711 149.149 105.6C162.342 110.851 173.316 115.144 173.316 115.144C191.592 119.783 210.178 108.762 214.828 90.5263L220.011 70.199C221.341 64.9837 218.182 59.6803 212.955 58.3534L122.967 35.5093Z" fill="#3F3D56"/>
<path d="M165.072 70.1058C164.445 64.9623 159.757 61.3 154.602 61.9256C149.496 62.5454 145.849 67.14 146.39 72.2256L146.24 72.2437L148.511 90.8698L165.689 88.7849C166.232 88.8142 166.784 88.7996 167.342 88.7318C172.497 88.1062 176.168 83.4294 175.541 78.2859C174.914 73.1425 170.227 69.4801 165.072 70.1058Z" fill="#D3E525"/>
<path d="M132.145 246.06C131.418 244.189 129.308 243.261 127.434 243.987C125.577 244.706 124.648 246.778 125.337 248.635L125.283 248.656L127.918 255.43L134.165 253.011C134.371 252.97 134.577 252.912 134.78 252.833C136.655 252.107 137.585 250.003 136.857 248.132C136.13 246.262 134.02 245.334 132.145 246.06Z" fill="#E6E6E6"/>
<path d="M272.004 246.06C271.276 244.189 269.167 243.261 267.292 243.987C265.435 244.706 264.506 246.778 265.196 248.635L265.141 248.656L267.776 255.43L274.023 253.011C274.23 252.97 274.435 252.912 274.639 252.833C276.513 252.107 277.443 250.003 276.716 248.132C275.988 246.262 273.879 245.334 272.004 246.06Z" fill="#E6E6E6"/>
<path d="M157.696 123.79C164.317 123.79 169.684 118.435 169.684 111.829C169.684 105.223 164.317 99.8676 157.696 99.8676C151.075 99.8676 145.708 105.223 145.708 111.829C145.708 118.435 151.075 123.79 157.696 123.79Z" fill="#D992FA"/>
<path d="M103.201 63.3202C101.915 64.1517 100.547 64.6244 99.3136 64.7366L87.5614 73.4299L83.5791 67.7292L95.9293 59.5245C96.536 58.4475 97.5275 57.395 98.8138 56.5636C101.752 54.664 105.117 54.6367 106.328 56.5025C107.54 58.3683 106.139 61.4207 103.201 63.3202Z" fill="#FFB6B6"/>
<path d="M75.6752 43.0341C75.6752 43.0341 66.6843 42.0373 65.1859 45.5259C63.6874 49.0146 60.6904 83.9009 60.6904 83.9009L65.6854 92.3733L98.4415 67.6378L91.808 61.0192L77.7696 67.6378L75.6752 43.0341Z" fill="#E6E6E6"/>
<path d="M205.9 54.3068C206.968 55.4032 208.196 56.168 209.373 56.5515L218.89 67.6378L224.045 62.9651L213.836 52.2223C213.485 51.0374 212.753 49.7911 211.685 48.6947C209.244 46.1899 205.97 45.4158 204.373 46.9655C202.775 48.5153 203.459 51.8021 205.9 54.3068Z" fill="#A0616A"/>
<path d="M237.262 40.6465C237.262 40.6465 246.25 41.6726 246.932 45.4066C247.614 49.1406 242.749 83.8167 242.749 83.8167L235.989 90.9665L209.576 59.5736L217.52 54.5951L229.729 64.167L237.262 40.6465Z" fill="#6C63FF"/>
<path d="M116.078 80.9077C120.217 80.9077 123.573 77.5598 123.573 73.4299C123.573 69.3 120.217 65.952 116.078 65.952C111.939 65.952 108.583 69.3 108.583 73.4299C108.583 77.5598 111.939 80.9077 116.078 80.9077Z" fill="#E6E6E6"/>
</g>
<defs>
<clipPath id="clip0_94_132">
<rect width="330" height="256" fill="white"/>
</clipPath>
</defs>
</svg>
