<svg width="328" height="151" viewBox="0 0 328 151" fill="none" xmlns="http://www.w3.org/2000/svg">
<path d="M81.5034 35L75.8394 12.6H79.9034L84.1594 31.544H84.2234L89.1194 12.6H93.4714L98.3674 31.576H98.4314L102.591 12.6H106.687L100.959 35H95.8394L91.2634 17.656H91.1994L86.5914 35H81.5034ZM114.828 35.384C113.228 35.384 111.81 35.0427 110.572 34.36C109.356 33.656 108.396 32.696 107.692 31.48C107.01 30.2427 106.668 28.8027 106.668 27.16C106.668 25.496 107.01 24.0347 107.692 22.776C108.375 21.5173 109.324 20.536 110.54 19.832C111.778 19.1067 113.207 18.744 114.828 18.744C116.407 18.744 117.783 19.096 118.956 19.8C120.13 20.4827 121.047 21.4 121.708 22.552C122.37 23.704 122.7 25.0053 122.7 26.456C122.7 26.6693 122.69 26.904 122.668 27.16C122.668 27.416 122.658 27.6933 122.636 27.992H109.452V25.528H118.828C118.764 24.376 118.359 23.4693 117.612 22.808C116.866 22.1467 115.938 21.816 114.828 21.816C114.039 21.816 113.303 21.9973 112.62 22.36C111.959 22.7013 111.426 23.224 111.02 23.928C110.636 24.632 110.444 25.528 110.444 26.616V27.544C110.444 28.5253 110.636 29.368 111.02 30.072C111.404 30.776 111.927 31.32 112.588 31.704C113.25 32.0667 113.986 32.248 114.796 32.248C115.671 32.248 116.407 32.0453 117.004 31.64C117.602 31.2347 118.05 30.7013 118.348 30.04H122.22C121.943 31.064 121.452 31.9813 120.748 32.792C120.066 33.5813 119.223 34.2107 118.22 34.68C117.218 35.1493 116.087 35.384 114.828 35.384ZM125.495 35V12.28H129.335V35H125.495ZM140.517 35.384C138.875 35.384 137.435 35.032 136.197 34.328C134.981 33.624 134.021 32.6533 133.317 31.416C132.635 30.1573 132.293 28.7067 132.293 27.064C132.293 25.4213 132.645 23.9813 133.349 22.744C134.053 21.5067 135.024 20.536 136.261 19.832C137.499 19.1067 138.917 18.744 140.517 18.744C142.523 18.744 144.208 19.2667 145.573 20.312C146.939 21.3573 147.813 22.7867 148.197 24.6H144.165C143.952 23.7467 143.515 23.096 142.853 22.648C142.192 22.2 141.403 21.976 140.485 21.976C139.717 21.976 139.003 22.168 138.341 22.552C137.701 22.936 137.179 23.512 136.773 24.28C136.389 25.048 136.197 25.976 136.197 27.064C136.197 27.8747 136.304 28.5893 136.517 29.208C136.752 29.8267 137.061 30.36 137.445 30.808C137.829 31.2347 138.277 31.5653 138.789 31.8C139.323 32.0133 139.888 32.12 140.485 32.12C141.104 32.12 141.659 32.024 142.149 31.832C142.64 31.6187 143.056 31.32 143.397 30.936C143.76 30.552 144.016 30.0827 144.165 29.528H148.197C147.813 31.2987 146.939 32.7173 145.573 33.784C144.208 34.8507 142.523 35.384 140.517 35.384ZM158.639 35.384C157.124 35.384 155.759 35.032 154.543 34.328C153.327 33.624 152.356 32.6533 151.631 31.416C150.927 30.1573 150.575 28.7067 150.575 27.064C150.575 25.4213 150.927 23.9707 151.631 22.712C152.356 21.4533 153.327 20.4827 154.543 19.8C155.78 19.096 157.156 18.744 158.671 18.744C160.207 18.744 161.583 19.096 162.799 19.8C164.015 20.4827 164.975 21.4533 165.679 22.712C166.404 23.9493 166.767 25.4 166.767 27.064C166.767 28.7067 166.404 30.1573 165.679 31.416C164.975 32.6533 164.004 33.624 162.767 34.328C161.551 35.032 160.175 35.384 158.639 35.384ZM158.639 32.152C159.407 32.152 160.1 31.96 160.719 31.576C161.359 31.192 161.871 30.6267 162.255 29.88C162.639 29.1333 162.831 28.1947 162.831 27.064C162.831 25.9333 162.639 24.9947 162.255 24.248C161.892 23.48 161.391 22.9147 160.751 22.552C160.111 22.168 159.428 21.976 158.703 21.976C157.956 21.976 157.263 22.168 156.623 22.552C155.983 22.9147 155.46 23.48 155.055 24.248C154.671 24.9947 154.479 25.9333 154.479 27.064C154.479 28.1947 154.671 29.1333 155.055 29.88C155.46 30.6267 155.972 31.192 156.591 31.576C157.231 31.96 157.913 32.152 158.639 32.152ZM169.649 35V19.128H173.041L173.361 21.56H173.425C173.916 20.6427 174.588 19.9493 175.441 19.48C176.316 18.9893 177.308 18.744 178.417 18.744C179.228 18.744 179.964 18.8507 180.625 19.064C181.308 19.2773 181.894 19.608 182.385 20.056C182.897 20.504 183.324 21.0693 183.665 21.752H183.729C184.305 20.8133 185.052 20.0773 185.969 19.544C186.908 19.0107 188.006 18.744 189.265 18.744C190.545 18.744 191.644 19.0213 192.561 19.576C193.478 20.1093 194.182 20.92 194.673 22.008C195.185 23.0747 195.441 24.3973 195.441 25.976V35H191.633V26.36C191.633 24.952 191.356 23.8747 190.801 23.128C190.246 22.36 189.393 21.976 188.241 21.976C187.494 21.976 186.833 22.1573 186.257 22.52C185.702 22.8613 185.265 23.3733 184.945 24.056C184.625 24.7387 184.465 25.5813 184.465 26.584V35H180.625V26.36C180.625 24.952 180.348 23.8747 179.793 23.128C179.238 22.36 178.396 21.976 177.265 21.976C176.561 21.976 175.921 22.168 175.345 22.552C174.769 22.936 174.31 23.4907 173.969 24.216C173.649 24.92 173.489 25.784 173.489 26.808V35H169.649ZM206.266 35.384C204.666 35.384 203.247 35.0427 202.01 34.36C200.794 33.656 199.834 32.696 199.13 31.48C198.447 30.2427 198.106 28.8027 198.106 27.16C198.106 25.496 198.447 24.0347 199.13 22.776C199.813 21.5173 200.762 20.536 201.978 19.832C203.215 19.1067 204.645 18.744 206.266 18.744C207.845 18.744 209.221 19.096 210.394 19.8C211.567 20.4827 212.485 21.4 213.146 22.552C213.807 23.704 214.138 25.0053 214.138 26.456C214.138 26.6693 214.127 26.904 214.106 27.16C214.106 27.416 214.095 27.6933 214.074 27.992H200.89V25.528H210.266C210.202 24.376 209.797 23.4693 209.05 22.808C208.303 22.1467 207.375 21.816 206.266 21.816C205.477 21.816 204.741 21.9973 204.058 22.36C203.397 22.7013 202.863 23.224 202.458 23.928C202.074 24.632 201.882 25.528 201.882 26.616V27.544C201.882 28.5253 202.074 29.368 202.458 30.072C202.842 30.776 203.365 31.32 204.026 31.704C204.687 32.0667 205.423 32.248 206.234 32.248C207.109 32.248 207.845 32.0453 208.442 31.64C209.039 31.2347 209.487 30.7013 209.786 30.04H213.658C213.381 31.064 212.89 31.9813 212.186 32.792C211.503 33.5813 210.661 34.2107 209.658 34.68C208.655 35.1493 207.525 35.384 206.266 35.384ZM230.874 35C229.786 35 228.837 34.8293 228.026 34.488C227.237 34.1467 226.618 33.5813 226.17 32.792C225.744 32.0027 225.53 30.936 225.53 29.592V22.232H222.81V19.128H225.53L225.946 14.968H229.37V19.128H233.722V22.232H229.37V29.592C229.37 30.4453 229.541 31.032 229.882 31.352C230.224 31.6507 230.821 31.8 231.674 31.8H233.594V35H230.874ZM243.326 35.384C241.811 35.384 240.446 35.032 239.23 34.328C238.014 33.624 237.043 32.6533 236.318 31.416C235.614 30.1573 235.262 28.7067 235.262 27.064C235.262 25.4213 235.614 23.9707 236.318 22.712C237.043 21.4533 238.014 20.4827 239.23 19.8C240.467 19.096 241.843 18.744 243.358 18.744C244.894 18.744 246.27 19.096 247.486 19.8C248.702 20.4827 249.662 21.4533 250.366 22.712C251.091 23.9493 251.454 25.4 251.454 27.064C251.454 28.7067 251.091 30.1573 250.366 31.416C249.662 32.6533 248.691 33.624 247.454 34.328C246.238 35.032 244.862 35.384 243.326 35.384ZM243.326 32.152C244.094 32.152 244.787 31.96 245.406 31.576C246.046 31.192 246.558 30.6267 246.942 29.88C247.326 29.1333 247.518 28.1947 247.518 27.064C247.518 25.9333 247.326 24.9947 246.942 24.248C246.579 23.48 246.078 22.9147 245.438 22.552C244.798 22.168 244.115 21.976 243.39 21.976C242.643 21.976 241.95 22.168 241.31 22.552C240.67 22.9147 240.147 23.48 239.742 24.248C239.358 24.9947 239.166 25.9333 239.166 27.064C239.166 28.1947 239.358 29.1333 239.742 29.88C240.147 30.6267 240.659 31.192 241.278 31.576C241.918 31.96 242.601 32.152 243.326 32.152Z" fill="white"/>
<path d="M14.6696 128.98L0.436723 113.22C-0.53982 112.14 0.223439 110.396 1.68264 110.396H15.9155C16.8471 110.396 17.5992 111.15 17.5992 112.083V127.844C17.5992 129.385 15.7022 130.116 14.6696 128.98Z" fill="#122300"/>
<path d="M23.7156 109.912L51.5864 80.5287C51.9007 80.1912 52.3496 80 52.8098 80L68.8499 80.0675C70.3315 80.0675 71.0836 81.8449 70.0621 82.9136L26.1513 129.16C25.1074 130.263 23.2441 129.52 23.2441 128.001V111.071C23.2441 110.643 23.4125 110.227 23.7044 109.912H23.7156Z" fill="white"/>
<path d="M41.2378 80.0899H13.1987C11.7058 80.0899 11.0098 81.9461 12.1435 82.9248L27.4315 96.2329C28.0825 96.7953 29.0591 96.7503 29.654 96.1316L42.3939 82.8235C43.3817 81.7998 42.6521 80.0899 41.2266 80.0899H41.2378Z" fill="#D3E525"/>
<path d="M64.2932 101.554L63.9452 127.9C63.9227 129.441 62.037 130.15 61.0043 129.003L49.0389 115.627C48.4552 114.975 48.4664 113.973 49.0725 113.332L61.386 100.35C62.4411 99.2366 64.3156 100.002 64.2932 101.531V101.554Z" fill="#D992FA"/>
<g opacity="0.98">
<path d="M81.6592 83.5323H122.36V92.6331H91.5256V103.646H121.237V112.747H91.5256V123.76H122.36V132.929H81.6592V83.5323Z" fill="white"/>
<path d="M164.677 132.929L163.69 128.271C160.098 131.871 154.957 133.986 148.974 133.986C137.289 133.986 128.489 126.01 128.489 115.357C128.489 104.704 137.222 96.5816 148.974 96.5816C154.822 96.5816 159.963 98.629 163.544 102.161V83.5323H173.399V132.929H164.666H164.677ZM151.084 125.234C158.549 125.234 163.544 121.207 163.544 115.357C163.544 109.507 158.47 105.266 151.084 105.266C143.699 105.266 138.344 109.496 138.344 115.357C138.344 121.218 143.699 125.234 151.084 125.234Z" fill="white"/>
<path d="M213.537 97.6505H223.392V132.929H214.525L213.604 127.068C210.506 131.376 205.859 133.986 200.371 133.986C189.808 133.986 182.411 125.797 182.411 114.086V97.6392H192.266V114.086C192.266 120.442 196.7 124.807 202.963 124.807C209.227 124.807 213.526 120.363 213.526 114.086V97.6392L213.537 97.6505Z" fill="white"/>
<path d="M266.058 127.349C261.905 130.735 256.416 132.715 250.568 132.715C238.884 132.715 231.273 125.166 232.968 114.794C234.585 104.209 244.586 96.5928 256.349 96.5928C262.332 96.5928 267.125 98.5727 270.144 102.094L271.839 97.6503H280.572L275.15 131.95C273.455 142.749 263.106 150.579 250.714 150.579C239.377 150.579 231.913 144.583 231.004 136.18H240.859C242.543 139.712 246.561 141.962 251.848 141.962C258.886 141.962 264.386 137.935 265.295 131.939L266.07 127.349H266.058ZM254.093 124.041C261.557 124.041 267.192 120.228 268.034 114.727C268.876 109.147 264.442 105.266 257.045 105.266C249.648 105.266 243.665 109.147 242.823 114.727C241.982 120.093 246.696 124.041 254.093 124.041Z" fill="#C0CDFF"/>
<path d="M309.15 96.5928C321.688 96.5928 329.568 104.141 327.738 115.368C326.043 126.381 315.773 133.997 303.235 133.997C290.697 133.997 282.952 126.021 284.579 115.368C286.342 104.569 296.758 96.5928 309.15 96.5928ZM304.638 124.818C311.676 124.818 317.03 120.869 317.872 115.357C318.792 109.71 314.706 105.694 307.657 105.694C300.608 105.694 295.333 109.721 294.423 115.357C293.582 120.858 297.948 124.818 304.638 124.818Z" fill="#C0CDFF"/>
</g>
</svg>
