<svg width="74" height="79" viewBox="0 0 74 79" fill="none" xmlns="http://www.w3.org/2000/svg">
<path fill-rule="evenodd" clip-rule="evenodd" d="M66 0C70.4183 0 74 3.58172 74 8V56C74 60.4183 70.4183 64 66 64H58.5056L43.5089 78.4055L40.9842 64H8C3.58173 64 0 60.4183 0 56V8C0 3.58172 3.58172 0 8 0H66Z" fill="white"/>
<g clip-path="url(#clip0_1531_2926)">
<path d="M37.127 12.9134C39.347 10.5342 42.593 9.18136 45.8204 9.29015" stroke="#71453B" stroke-miterlimit="10"/>
<path d="M37.3604 13.2209C37.6682 10.4916 37.976 7.75759 38.2838 5.02832" stroke="#71453B" stroke-miterlimit="10"/>
<path d="M36.9263 12.8944C35.9002 10.274 33.3258 8.34881 30.5508 8.13123" stroke="#71453B" stroke-miterlimit="10"/>
<path d="M46.0446 11.2389H26.9554C20.9049 11.2389 16 16.2135 16 22.3499V42.4292C16 48.5657 20.9049 53.5402 26.9554 53.5402H46.0446C52.0951 53.5402 57 48.5657 57 42.4292V22.3499C57 16.2135 52.0951 11.2389 46.0446 11.2389Z" fill="#71453B"/>
<path d="M37.099 17.7334H35.8958C26.8574 17.7334 19.5303 25.1645 19.5303 34.3313V39.402C19.5303 48.5688 26.8574 56 35.8958 56H37.099C46.1374 56 53.4645 48.5688 53.4645 39.402V34.3313C53.4645 25.1645 46.1374 17.7334 37.099 17.7334Z" fill="#FFC8B0"/>
<g style="mix-blend-mode:soft-light">
<mask id="mask0_1531_2926" style="mask-type:luminance" maskUnits="userSpaceOnUse" x="19" y="17" width="35" height="39">
<path d="M37.099 17.7334H35.8958C26.8574 17.7334 19.5303 25.1645 19.5303 34.3313V39.402C19.5303 48.5688 26.8574 56 35.8958 56H37.099C46.1374 56 53.4645 48.5688 53.4645 39.402V34.3313C53.4645 25.1645 46.1374 17.7334 37.099 17.7334Z" fill="white"/>
</mask>
<g mask="url(#mask0_1531_2926)">
<path d="M29.0144 47.8362C31.9209 45.0183 32.0246 40.3444 29.2462 37.3967C26.4678 34.449 21.8594 34.3437 18.953 37.1616C16.0465 39.9795 15.9428 44.6534 18.7212 47.6011C21.4996 50.5488 26.108 50.654 29.0144 47.8362Z" fill="#71453B"/>
<path d="M54.6958 47.72C57.5389 44.8365 57.5389 40.1614 54.6958 37.2778C51.8526 34.3943 47.243 34.3943 44.3999 37.2778C41.5568 40.1614 41.5568 44.8364 44.3999 47.72C47.243 50.6035 51.8526 50.6035 54.6958 47.72Z" fill="#71453B"/>
</g>
</g>
<path d="M32.5152 35.1166C32.5152 36.1998 31.8669 37.0796 31.0647 37.0796C30.2625 37.0796 29.6143 36.1998 29.6143 35.1166C29.6143 34.0334 30.2625 33.1536 31.0647 33.1536C31.8669 33.1536 32.5152 34.0334 32.5152 35.1166Z" fill="#54160C"/>
<path d="M43.1343 35.1166C43.1343 36.1998 42.486 37.0796 41.6839 37.0796C40.8817 37.0796 40.2334 36.1998 40.2334 35.1166C40.2334 34.0334 40.8817 33.1536 41.6839 33.1536C42.486 33.1536 43.1343 34.0334 43.1343 35.1166Z" fill="#54160C"/>
<path d="M36.498 33.1583V38.7115L39.7674 38.4702C39.7674 38.4702 40.1778 42.3631 36.498 42.3631" stroke="#D3671E" stroke-miterlimit="10"/>
<path d="M44.5848 42.3773C44.5848 42.3773 40.7511 49.0752 34.4502 45.4472" stroke="#D3671E" stroke-miterlimit="10"/>
<path d="M54.2715 34.9415C54.2715 11.2058 36.4556 11.2389 36.4556 11.2389C36.4556 11.2389 18.6396 11.2011 18.6396 34.9415C18.6396 34.9415 27.3751 30.6654 28.9794 24.6346L28.4851 31.304C28.4851 31.304 36.4556 27.8841 36.4556 21.0397C36.4556 27.8841 44.4261 31.304 44.4261 31.304L43.9318 24.6346C45.5361 30.6654 54.2715 34.9415 54.2715 34.9415Z" fill="#71453B"/>
<path d="M28.4666 17.6388C26.6151 21.6688 23.5183 25.1029 19.7266 27.3308" stroke="#8E5147" stroke-miterlimit="10"/>
<path d="M31.7449 17.3313C31.7122 19.5923 31.2645 21.8438 30.4297 23.9393" stroke="#8E5147" stroke-miterlimit="10"/>
<path d="M33.7974 16.8867C33.8254 18.8781 33.5315 20.8742 32.9346 22.7757" stroke="#8E5147" stroke-miterlimit="10"/>
<path d="M39.1514 16.4515C39.7204 18.8592 40.2893 21.2621 40.8583 23.6697" stroke="#8E5147" stroke-miterlimit="10"/>
<path d="M42.2158 17.1847C43.6803 21.2195 46.334 24.8049 49.748 27.3591" stroke="#8E5147" stroke-miterlimit="10"/>
<path d="M46.2168 18.0881C47.0983 20.2971 48.2456 22.3925 49.6214 24.3224C50.1204 25.0225 50.6941 25.732 51.4963 26.0158" stroke="#8E5147" stroke-miterlimit="10"/>
<path d="M29.4223 30.3344L28.9653 31.2568C28.8394 31.5075 28.7228 31.7298 28.5968 31.9474C28.4709 32.165 28.3357 32.3731 28.1771 32.6049L27.5941 33.4516C27.263 33.1678 27.1231 32.761 27.0997 32.3636C27.0811 31.9663 27.1884 31.5642 27.3889 31.2237C27.5894 30.8831 27.8833 30.5946 28.2377 30.4196C28.5922 30.2493 29.0073 30.1783 29.413 30.3344H29.4223Z" fill="#71453B"/>
<path d="M44.1089 30.3344C44.5147 30.1783 44.9298 30.2493 45.2842 30.4196C45.6387 30.5946 45.9325 30.8784 46.1331 31.2237C46.3336 31.5642 46.4409 31.9663 46.4222 32.3636C46.3989 32.761 46.2636 33.1678 45.9278 33.4516L45.3449 32.6049C45.1863 32.3731 45.051 32.1602 44.9251 31.9474C44.7992 31.7298 44.6826 31.5075 44.5567 31.2568L44.0996 30.3344H44.1089Z" fill="#71453B"/>
</g>
<defs>
<clipPath id="clip0_1531_2926">
<rect width="41" height="51" fill="white" transform="translate(16 5)"/>
</clipPath>
</defs>
</svg>
