<svg width="74" height="79" viewBox="0 0 74 79" fill="none" xmlns="http://www.w3.org/2000/svg">
<path fill-rule="evenodd" clip-rule="evenodd" d="M8 0C3.58172 0 0 3.58172 0 8V56C0 60.4183 3.58172 64 8 64H15.4944L30.4911 78.4055L33.0158 64H66C70.4183 64 74 60.4183 74 56V8C74 3.58172 70.4183 0 66 0H8Z" fill="white"/>
<g clip-path="url(#clip0_1531_2802)">
<path d="M61.4602 35.9548C61.4602 33.1863 60.0881 30.7446 58.0031 29.2828C58.5181 28.2106 58.8148 27.0128 58.8148 25.7395C58.8148 21.2706 55.2505 17.6478 50.8539 17.6478C50.7015 17.6478 50.5531 17.6603 50.4048 17.6729C50.0339 13.5516 46.6304 10.3224 42.481 10.3224C39.9427 10.3224 37.6888 11.5329 36.2301 13.4134C34.7714 11.5329 32.5175 10.3224 29.9792 10.3224C25.8298 10.3224 22.4222 13.5516 22.0554 17.6729C21.9071 17.6645 21.7587 17.6478 21.6063 17.6478C17.2097 17.6478 13.6454 21.2706 13.6454 25.7395C13.6454 27.0128 13.9421 28.2106 14.4571 29.2828C12.3721 30.7446 11 33.1863 11 35.9548C11 39.741 13.563 42.9157 17.0242 43.7953C17.0242 43.879 17.0119 43.9628 17.0119 44.0466C17.0119 48.5155 20.5761 52.1383 24.9728 52.1383C26.588 52.1383 28.0838 51.6483 29.3405 50.8107C30.4902 53.843 33.3746 56 36.7658 56C39.9674 56 42.72 54.0733 43.985 51.3049C45.044 51.8368 46.2307 52.1425 47.4916 52.1425C51.8882 52.1425 55.4524 48.5197 55.4524 44.0508C55.4524 43.967 55.4442 43.8832 55.4401 43.7995C58.8972 42.9199 61.4643 39.7452 61.4643 35.959L61.4602 35.9548ZM32.398 41.1441C31.475 38.7107 29.4353 36.8511 26.9135 36.2061C26.9135 36.1223 26.9259 36.0386 26.9259 35.9548C26.9259 34.6815 26.6292 33.4837 26.1142 32.4115C28.0137 31.0838 29.3158 28.9436 29.5342 26.4809C29.6826 26.4893 29.8309 26.506 29.9834 26.506C32.5216 26.506 34.7756 25.2956 36.2342 23.415C37.6929 25.2956 39.9468 26.506 42.4851 26.506C42.6376 26.506 42.7859 26.4934 42.9342 26.4809C43.1526 28.9436 44.4547 31.0838 46.3543 32.4115C45.8392 33.4837 45.5425 34.6815 45.5425 35.9548C45.5425 36.0386 45.5508 36.1223 45.5549 36.2061C43.2062 36.805 41.2737 38.4594 40.2765 40.6499C39.2175 40.118 38.0308 39.8122 36.7699 39.8122C35.1546 39.8122 33.6589 40.3022 32.4021 41.1399L32.398 41.1441Z" fill="#350601"/>
<path d="M24.2933 15.2312C22.8263 14.3977 20.9144 14.582 19.5011 15.5076C18.0877 16.4332 17.1606 18.0122 16.8021 19.6791C16.5013 21.0738 16.6538 22.7198 17.721 23.6496" stroke="#350601" stroke-miterlimit="10"/>
<path d="M39.4815 13.5768C38.472 11.6083 36.354 10.2178 34.1702 10.3141C31.9863 10.4104 29.9177 12.1276 29.584 14.3223" stroke="#350601" stroke-miterlimit="10"/>
<path d="M43.6758 14.6908C45.5918 13.493 48.0724 13.5391 50.1821 14.3348C50.8991 14.6029 51.6078 14.9715 52.0941 15.5704C52.6421 16.2489 52.8522 17.1452 52.9305 18.0205C53.0541 19.3817 52.9099 20.7681 52.502 22.0706" stroke="#350601" stroke-miterlimit="10"/>
<path d="M16.2247 27.2432C14.0038 27.239 11.9311 29.1321 11.7045 31.3812C11.4779 33.6303 13.122 35.9129 15.2976 36.3695" stroke="#350601" stroke-miterlimit="10"/>
<path d="M31.6064 14.8039C33.3 12.9066 35.4427 11.3737 37.8656 10.6533C40.2843 9.93296 42.9915 10.0628 45.2249 11.2565C47.4582 12.4501 49.1476 14.7495 49.399 17.3002" stroke="#350601" stroke-miterlimit="10"/>
<path d="M56.1367 26.4767C57.7314 26.5898 59.2148 27.5238 60.1831 28.8138C61.1555 30.1037 61.6459 31.7246 61.7654 33.3455C61.8725 34.8072 61.6789 36.3234 60.9907 37.6092C60.3026 38.895 59.0747 39.9295 57.649 40.1515" stroke="#350601" stroke-miterlimit="10"/>
<path d="M36.9469 19.1891H35.8838C27.8983 19.1891 21.4248 25.769 21.4248 33.8858V38.3756C21.4248 46.4924 27.8983 53.0724 35.8838 53.0724H36.9469C44.9324 53.0724 51.4059 46.4924 51.4059 38.3756V33.8858C51.4059 25.769 44.9324 19.1891 36.9469 19.1891Z" fill="#915943"/>
<g style="mix-blend-mode:soft-light">
<mask id="mask0_1531_2802" style="mask-type:luminance" maskUnits="userSpaceOnUse" x="21" y="19" width="31" height="35">
<path d="M36.9469 19.1891H35.8838C27.8983 19.1891 21.4248 25.769 21.4248 33.8858V38.3756C21.4248 46.4924 27.8983 53.0724 35.8838 53.0724H36.9469C44.9324 53.0724 51.4059 46.4924 51.4059 38.3756V33.8858C51.4059 25.769 44.9324 19.1891 36.9469 19.1891Z" fill="white"/>
</mask>
<g mask="url(#mask0_1531_2802)">
<path d="M29.9054 45.743C32.4174 43.1898 32.4174 39.0502 29.9054 36.497C27.3935 33.9438 23.3209 33.9438 20.809 36.497C18.2971 39.0502 18.2971 43.1898 20.809 45.743C23.3209 48.2962 27.3935 48.2962 29.9054 45.743Z" fill="#915943"/>
<path d="M52.2251 45.9964C54.8742 43.5906 55.1029 39.4575 52.7361 36.7649C50.3692 34.0723 46.303 33.8398 43.6539 36.2456C41.0049 38.6514 40.7761 42.7844 43.143 45.477C45.5099 48.1696 49.5761 48.4021 52.2251 45.9964Z" fill="#915943"/>
</g>
</g>
<path d="M36.4155 17.9954C35.3689 17.7986 19.5295 15.1641 21.2725 36.3192H23.1886V30.9749C23.1886 30.9749 28.9903 32.2356 30.3006 26.1123C30.3006 26.1123 32.571 28.1143 36.3578 28.152C36.3578 28.152 36.3949 28.152 36.4114 28.152C36.432 28.152 36.4485 28.152 36.465 28.152C40.2517 28.1101 42.5222 26.1081 42.5222 26.1081C43.8325 32.2314 49.6342 30.9707 49.6342 30.9707V36.315H51.5503C53.2933 15.1599 37.4539 17.7944 36.4073 17.9912L36.4155 17.9954Z" fill="#350601"/>
<path d="M31.6106 36.3234C32.3183 36.3234 32.8921 35.5452 32.8921 34.5852C32.8921 33.6253 32.3183 32.8471 31.6106 32.8471C30.9028 32.8471 30.3291 33.6253 30.3291 34.5852C30.3291 35.5452 30.9028 36.3234 31.6106 36.3234Z" fill="#350601"/>
<path d="M40.9934 36.3234C41.7012 36.3234 42.2749 35.5452 42.2749 34.5852C42.2749 33.6253 41.7012 32.8471 40.9934 32.8471C40.2857 32.8471 39.7119 33.6253 39.7119 34.5852C39.7119 35.5452 40.2857 36.3234 40.9934 36.3234Z" fill="#350601"/>
<path d="M36.415 32.8471V37.7642L39.3035 37.5506C39.3035 37.5506 39.6661 40.9975 36.415 40.9975" stroke="#350601" stroke-miterlimit="10"/>
<path d="M32.8916 42.7775C32.8916 42.7775 33.419 45.1146 36.8844 45.1146C40.3498 45.1146 40.9926 42.7775 40.9926 42.7775" stroke="#350601" stroke-miterlimit="10"/>
<path d="M42.5266 20.4372C40.2768 23.4486 36.1068 24.8098 32.5508 23.6915" stroke="#54160C" stroke-miterlimit="10"/>
<path d="M40.5154 18.6362C40.2063 19.4069 39.4852 19.9178 38.7642 20.3074C37.1654 21.1701 35.3812 21.6686 33.5723 21.7565" stroke="#54160C" stroke-miterlimit="10"/>
<path d="M45.3408 22.0162C45.3408 23.2015 45.6045 24.3826 46.1072 25.4506C46.5317 26.3511 47.3516 27.2725 48.3159 27.0882" stroke="#54160C" stroke-miterlimit="10"/>
<path d="M47.4502 22.5313C47.6233 24.1815 48.9954 25.6223 50.6107 25.8484" stroke="#54160C" stroke-miterlimit="10"/>
<path d="M55.6133 31.0084C56.87 33.0984 57.0349 35.825 56.0418 38.0615" stroke="#54160C" stroke-miterlimit="10"/>
<path d="M16.2661 32.0471C15.2855 32.8722 14.7209 34.1873 14.791 35.4815C14.861 36.7757 15.5657 38.0154 16.6329 38.7274" stroke="#54160C" stroke-miterlimit="10"/>
<path d="M18.5081 32.6712C17.9601 33.9361 17.8529 35.3978 18.2155 36.7338" stroke="#54160C" stroke-miterlimit="10"/>
<path d="M29.8849 30.4221L29.4811 31.2388C29.3699 31.4608 29.2668 31.6576 29.1556 31.8503C29.0443 32.043 28.9248 32.2272 28.7847 32.4325L28.2697 33.1822C27.9771 32.9309 27.8535 32.5707 27.8329 32.2189C27.8164 31.8671 27.9112 31.511 28.0884 31.2095C28.2656 30.9079 28.5252 30.6524 28.8383 30.4975C29.1515 30.3467 29.5182 30.2839 29.8767 30.4221H29.8849Z" fill="#350601"/>
<path d="M42.8608 30.4221C43.2193 30.2839 43.586 30.3467 43.8992 30.4975C44.2123 30.6524 44.4719 30.9037 44.6491 31.2095C44.8263 31.511 44.9211 31.8671 44.9046 32.2189C44.884 32.5707 44.7645 32.9309 44.4678 33.1822L43.9527 32.4325C43.8126 32.2272 43.6931 32.043 43.5819 31.8503C43.4706 31.6576 43.3676 31.4608 43.2564 31.2388L42.8525 30.4221H42.8608Z" fill="#350601"/>
</g>
<defs>
<clipPath id="clip0_1531_2802">
<rect width="51" height="46" fill="white" transform="translate(11 10)"/>
</clipPath>
</defs>
</svg>
