<svg width="74" height="79" viewBox="0 0 74 79" fill="none" xmlns="http://www.w3.org/2000/svg">
<path fill-rule="evenodd" clip-rule="evenodd" d="M66 0C70.4183 0 74 3.58172 74 8V56C74 60.4183 70.4183 64 66 64H58.5056L43.5089 78.4055L40.9842 64H8C3.58173 64 0 60.4183 0 56V8C0 3.58172 3.58172 0 8 0H66Z" fill="white"/>
<g clip-path="url(#clip0_1531_2843)">
<path d="M50.1615 19.2681C51.5353 17.6613 50.9901 14.8847 49.1998 13.7578C47.4094 12.6266 44.8163 13.1965 43.5068 14.8547" stroke="#F8E14C" stroke-miterlimit="10"/>
<path d="M48.9336 15.3861C49.1096 13.1708 47.4266 10.9599 45.2413 10.5399C43.0561 10.12 40.669 11.5469 40.0078 13.6722" stroke="#F8E14C" stroke-miterlimit="10"/>
<path d="M32.4646 14.0491C31.3354 11.9624 28.4331 11.0626 26.3165 12.1424C24.1999 13.2222 23.234 16.0973 24.2643 18.2354" stroke="#F8E14C" stroke-miterlimit="10"/>
<path d="M27.0768 15.4589C26.8492 13.3808 28.4077 11.2598 30.4642 10.8484C32.5207 10.4371 34.7747 11.7997 35.3671 13.805" stroke="#F8E14C" stroke-miterlimit="10"/>
<path d="M36.1912 14.7433C36.041 12.6566 37.6767 10.5956 39.7461 10.2614C41.8155 9.92719 44.0179 11.3669 44.5374 13.3936" stroke="#F8E14C" stroke-miterlimit="10"/>
<path d="M37.5264 17.3357H36.4187C28.0984 17.3357 21.3535 24.0673 21.3535 32.3712V36.9645C21.3535 45.2684 28.0984 52 36.4187 52H37.5264C45.8467 52 52.5916 45.2684 52.5916 36.9645V32.3712C52.5916 24.0673 45.8467 17.3357 37.5264 17.3357Z" fill="#F2B1A5"/>
<g style="mix-blend-mode:soft-light">
<mask id="mask0_1531_2843" style="mask-type:luminance" maskUnits="userSpaceOnUse" x="21" y="17" width="32" height="35">
<path d="M37.5264 17.3357H36.4187C28.0984 17.3357 21.3535 24.0673 21.3535 32.3712V36.9645C21.3535 45.2684 28.0984 52 36.4187 52H37.5264C45.8467 52 52.5916 45.2684 52.5916 36.9645V32.3712C52.5916 24.0673 45.8467 17.3357 37.5264 17.3357Z" fill="white"/>
</mask>
<g mask="url(#mask0_1531_2843)">
<path d="M28.042 45.9386C31.4559 44.5113 33.064 40.5922 31.6339 37.185C30.2037 33.7779 26.2769 32.1729 22.863 33.6003C19.4491 35.0276 17.841 38.9467 19.2712 42.3539C20.7013 45.761 24.6282 47.3659 28.042 45.9386Z" fill="#71453B"/>
<path d="M51.5752 45.9395C54.9891 44.5121 56.5972 40.593 55.1671 37.1859C53.7369 33.7787 49.8101 32.1738 46.3962 33.6011C42.9823 35.0285 41.3742 38.9476 42.8044 42.3547C44.2345 45.7619 48.1614 47.3668 51.5752 45.9395Z" fill="#71453B"/>
</g>
</g>
<path d="M21.4261 32.9454C21.4261 32.9454 18 32.1998 18 35.9447C18 40.3496 21.8253 39.6854 21.8253 39.6854L21.4261 32.9496V32.9454Z" fill="#D3826F"/>
<path d="M52.5741 32.9454C52.5741 32.9454 56.0001 32.1998 56.0001 35.9447C56.0001 40.3496 52.1748 39.6854 52.1748 39.6854L52.5741 32.9496V32.9454Z" fill="#D3826F"/>
<path d="M53.2871 23.5573C53.2871 19.0325 50.0499 11.4741 37.3461 11.4526C37.3461 11.4526 37.3289 11.4526 37.3203 11.4526C37.3117 11.4526 37.3031 11.4526 37.2945 11.4526C24.5907 11.4741 21.3535 19.0325 21.3535 23.5573C21.3535 28.0821 21.4265 32.9411 21.4265 32.9411H24.303V25.9097C24.303 25.9097 26.3509 26.3982 27.4972 25.0956C28.6392 23.793 28.313 21.5092 28.313 21.5092C28.313 21.5092 29.412 22.8075 31.3097 22.2976C32.6664 21.9291 33.1043 20.7679 33.2417 20.1337C33.9372 21.6763 35.4914 22.756 37.2988 22.756C38.9475 22.756 40.3857 21.8605 41.1542 20.5279C41.3732 21.1664 41.8669 21.9976 42.9746 22.2976C44.8722 22.8075 45.9713 21.5092 45.9713 21.5092C45.9713 21.5092 45.645 23.7887 46.787 25.0956C47.929 26.3982 49.9812 25.9097 49.9812 25.9097V32.9411H52.8578V32.9325L53.2184 32.9411C53.2184 32.9411 53.2914 28.0907 53.2914 23.5573H53.2871Z" fill="#F8E14C"/>
<path d="M33.3052 33.0868C33.3052 34.068 32.7084 34.865 31.97 34.865C31.2315 34.865 30.6348 34.068 30.6348 33.0868C30.6348 32.1056 31.2315 31.3086 31.97 31.3086C32.7084 31.3086 33.3052 32.1056 33.3052 33.0868Z" fill="#54160C"/>
<path d="M43.0806 33.0868C43.0806 34.068 42.4838 34.865 41.7454 34.865C41.0069 34.865 40.4102 34.068 40.4102 33.0868C40.4102 32.1056 41.0069 31.3086 41.7454 31.3086C42.4838 31.3086 43.0806 32.1056 43.0806 33.0868Z" fill="#54160C"/>
<path d="M36.9717 31.3086V36.339L39.9813 36.1205C39.9813 36.1205 40.3591 39.6469 36.9717 39.6469" stroke="#BC5B48" stroke-miterlimit="10"/>
<path d="M33.4297 43.7303C33.4297 43.7303 33.9792 46.1213 37.5899 46.1213C41.2006 46.1213 41.8703 43.7303 41.8703 43.7303" stroke="#BC5B48" stroke-miterlimit="10"/>
<path d="M34.3965 17.3828C35.0405 19.0753 37.1571 20.048 38.8615 19.4267" stroke="#EFD384" stroke-miterlimit="10"/>
<path d="M35.8047 16.1573C36.3542 17.4856 38.1445 18.1198 39.4068 17.4342" stroke="#EFD384" stroke-miterlimit="10"/>
<path d="M42.6953 17.1085C43.1203 18.4582 44.3654 19.5166 45.7736 19.718" stroke="#EFD384" stroke-miterlimit="10"/>
<path d="M48.3713 20.3179C47.9935 21.6762 48.8306 23.253 50.1702 23.7029" stroke="#EFD384" stroke-miterlimit="10"/>
<path d="M31.477 17.2328C31.1078 18.6211 29.7254 19.6709 28.2871 19.658" stroke="#EFD384" stroke-miterlimit="10"/>
<path d="M26.0581 20.9692C26.0967 22.139 25.1651 23.2659 24.0059 23.4502" stroke="#EFD384" stroke-miterlimit="10"/>
<path d="M30.2572 28.7505L29.8364 29.586C29.7205 29.8131 29.6132 30.0145 29.4973 30.2116C29.3813 30.4087 29.2568 30.5972 29.1109 30.8072L28.5742 31.5742C28.2694 31.3171 28.1406 30.9486 28.1191 30.5887C28.1019 30.2287 28.2007 29.8645 28.3853 29.556C28.5699 29.2475 28.8404 28.9861 29.1667 28.8276C29.493 28.6733 29.8751 28.6091 30.2486 28.7505H30.2572Z" fill="#F8E14C"/>
<path d="M43.7771 28.7505C44.1507 28.6091 44.5328 28.6733 44.8591 28.8276C45.1853 28.9861 45.4558 29.2432 45.6404 29.556C45.825 29.8645 45.9238 30.2287 45.9066 30.5887C45.8852 30.9486 45.7606 31.3171 45.4515 31.5742L44.9149 30.8072C44.7689 30.5972 44.6444 30.4044 44.5285 30.2116C44.4125 30.0145 44.3052 29.8131 44.1893 29.586L43.7686 28.7505H43.7771Z" fill="#F8E14C"/>
<path d="M37.3447 40.1011C39.6674 39.9897 42.0244 40.7481 43.8233 42.1878" stroke="#F8E14C" stroke-miterlimit="10"/>
<path d="M35.8426 40.3839C33.9964 40.3839 32.1632 41.3051 30.8838 42.882" stroke="#F8E14C" stroke-miterlimit="10"/>
<path d="M39.6462 42.1878L40.2473 43.6532L43.7764 43.5675C43.7764 43.5675 42.7417 39.9897 37.6627 39.8097V39.8011C37.594 39.8011 37.5296 39.8011 37.461 39.8054C37.3923 39.8054 37.3279 39.8011 37.2592 39.8011V39.8097C32.1802 39.9897 31.1455 43.5675 31.1455 43.5675L37.2592 43.7175V43.7261H37.461H37.6627V43.7175L39.4874 43.6704L39.6419 42.1835L39.6462 42.1878Z" fill="#F8E14C"/>
<path d="M35.8599 40.6282C35.3189 41.1295 34.9411 41.8793 34.8252 42.6849" stroke="#EFD384" stroke-miterlimit="10"/>
<path d="M36.9413 40.3882C36.4476 41.2366 36.1513 42.2435 36.0869 43.2719" stroke="#EFD384" stroke-miterlimit="10"/>
<path d="M38.1562 40.6453C38.1562 41.2966 38.1992 41.9521 38.2765 42.5992" stroke="#EFD384" stroke-miterlimit="10"/>
</g>
<defs>
<clipPath id="clip0_1531_2843">
<rect width="38" height="42" fill="white" transform="translate(18 10)"/>
</clipPath>
</defs>
</svg>
