<svg width="74" height="79" viewBox="0 0 74 79" fill="none" xmlns="http://www.w3.org/2000/svg">
<path fill-rule="evenodd" clip-rule="evenodd" d="M8 0C3.58172 0 0 3.58172 0 8V56C0 60.4183 3.58172 64 8 64H15.4944L30.4911 78.4055L33.0158 64H66C70.4183 64 74 60.4183 74 56V8C74 3.58172 70.4183 0 66 0H8Z" fill="white"/>
<g clip-path="url(#clip0_1531_2890)">
<path d="M33.0322 12.5729C30.219 11.2258 26.6374 11.6944 24.2646 13.7173C21.8918 15.7402 20.8537 19.2093 21.7301 22.2099" stroke="#B34937" stroke-miterlimit="10"/>
<path d="M24.3232 17.8622C27.0286 11.2348 34.7401 7.08992 41.7416 8.5001C43.4403 8.8425 45.0716 9.46875 46.613 10.2662C47.9387 10.9555 49.206 11.78 50.2665 12.8342C52.1315 14.695 53.273 17.2585 53.4168 19.8896" stroke="#B34937" stroke-miterlimit="10"/>
<path d="M19.6806 21.3088C18.4403 23.7868 17.9909 26.5711 17.5595 29.3103C17.2494 31.2792 16.9393 33.248 16.6248 35.2169C16.2742 37.438 15.9282 39.7628 16.6338 41.8983C17.3168 43.9753 19.0155 45.6873 21.0827 46.3856" stroke="#B34937" stroke-miterlimit="10"/>
<path d="M46.5456 10.2572C35.0187 6.40513 29.1991 14.0552 29.1991 14.0552C23.1548 14.0552 18.252 18.966 18.252 25.0302V42.6912C18.252 48.7509 23.1503 53.6663 29.1991 53.6663H46.8152C52.8595 53.6663 57.7623 48.7554 57.7623 42.6912V25.0302C57.7623 25.0302 58.0769 14.1093 46.5501 10.2617L46.5456 10.2572Z" fill="#B34937"/>
<path d="M38.9949 19.5518H37.8355C29.1265 19.5518 22.0664 26.6298 22.0664 35.361V40.1908C22.0664 48.922 29.1265 56 37.8355 56H38.9949C47.704 56 54.764 48.922 54.764 40.1908V35.361C54.764 26.6298 47.704 19.5518 38.9949 19.5518Z" fill="#FFC3A9"/>
<g style="mix-blend-mode:soft-light">
<mask id="mask0_1531_2890" style="mask-type:luminance" maskUnits="userSpaceOnUse" x="22" y="19" width="33" height="37">
<path d="M38.9949 19.5518H37.8355C29.1265 19.5518 22.0664 26.6298 22.0664 35.361V40.1908C22.0664 48.922 29.1265 56 37.8355 56H38.9949C47.704 56 54.764 48.922 54.764 40.1908V35.361C54.764 26.6298 47.704 19.5518 38.9949 19.5518Z" fill="white"/>
</mask>
<g mask="url(#mask0_1531_2890)">
<path d="M33.1883 44.7399C34.0684 40.9573 31.7233 37.1756 27.9503 36.2933C24.1773 35.411 20.4053 37.7621 19.5252 41.5447C18.6451 45.3273 20.9902 49.1089 24.7632 49.9913C28.5362 50.8736 32.3083 48.5225 33.1883 44.7399Z" fill="#CC3333"/>
<path d="M57.8279 44.6821C58.677 40.8924 56.3009 37.1302 52.5209 36.2789C48.7408 35.4277 44.9881 37.8097 44.139 41.5994C43.2899 45.3891 45.6659 49.1514 49.446 50.0027C53.2261 50.8539 56.9788 48.4719 57.8279 44.6821Z" fill="#CC3333"/>
</g>
</g>
<path d="M34.5774 36.1134C34.5774 37.1451 33.9528 37.9831 33.1798 37.9831C32.4069 37.9831 31.7822 37.1451 31.7822 36.1134C31.7822 35.0816 32.4069 34.2437 33.1798 34.2437C33.9528 34.2437 34.5774 35.0816 34.5774 36.1134Z" fill="#54160C"/>
<path d="M44.8099 36.1134C44.8099 37.1451 44.1852 37.9831 43.4123 37.9831C42.6393 37.9831 42.0146 37.1451 42.0146 36.1134C42.0146 35.0816 42.6393 34.2437 43.4123 34.2437C44.1852 34.2437 44.8099 35.0816 44.8099 36.1134Z" fill="#54160C"/>
<path d="M38.4199 34.2437V39.5329L41.5701 39.3032C41.5701 39.3032 41.9656 43.0111 38.4199 43.0111" stroke="#E58765" stroke-miterlimit="10"/>
<path d="M32.7129 43.0245C32.7129 43.0245 36.4069 49.4041 42.4781 45.9485" stroke="#E58765" stroke-miterlimit="10"/>
<path d="M38.3532 17.691C37.6881 17.6324 21.8291 16.5016 21.8291 37.5866H25.0872L30.5293 23.8633C30.5293 23.8633 32.3988 26.116 38.3307 26.125C38.3307 26.125 38.3442 26.125 38.3532 26.125C38.3622 26.125 38.3667 26.125 38.3756 26.125C44.3076 26.1115 46.1771 23.8588 46.1771 23.8588L51.6192 37.5821H54.8773C54.8773 16.5016 39.0183 17.6324 38.3532 17.6865V17.691Z" fill="#B34937"/>
<path d="M31.8096 19.6058C35.535 22.9398 41.2378 23.8589 45.8126 21.854" stroke="#71453B" stroke-miterlimit="10"/>
<path d="M33.293 17.9929C36.5331 20.5159 41.0315 21.3224 44.9412 20.0789" stroke="#71453B" stroke-miterlimit="10"/>
<path d="M26.7005 23.111C25.5636 26.4224 24.4266 29.7293 23.2852 33.0408" stroke="#71453B" stroke-miterlimit="10"/>
<path d="M24.3096 23.1019C23.4647 25.67 22.6154 28.2335 21.7705 30.8016" stroke="#71453B" stroke-miterlimit="10"/>
<path d="M50.1221 24.0751C50.8501 26.3728 51.7713 28.612 52.8768 30.752" stroke="#71453B" stroke-miterlimit="10"/>
<path d="M51.0889 22.9623C51.9742 25.0167 52.8595 27.0712 53.7448 29.1301" stroke="#71453B" stroke-miterlimit="10"/>
<path d="M31.2976 31.5585L30.8572 32.437C30.7359 32.6758 30.6235 32.8875 30.5022 33.0948C30.3808 33.302 30.2505 33.5003 30.0977 33.721L29.536 34.5275C29.2169 34.2572 29.0821 33.8697 29.0596 33.4912C29.0417 33.1128 29.145 32.7298 29.3382 32.4055C29.5315 32.0811 29.8146 31.8062 30.1561 31.6395C30.4977 31.4774 30.8976 31.4098 31.2886 31.5585H31.2976Z" fill="#54160C"/>
<path d="M45.4484 31.5585C45.8394 31.4098 46.2394 31.4774 46.5809 31.6395C46.9224 31.8062 47.2056 32.0766 47.3988 32.4055C47.592 32.7298 47.6954 33.1128 47.6774 33.4912C47.6549 33.8697 47.5246 34.2572 47.2011 34.5275L46.6393 33.721C46.4865 33.5003 46.3562 33.2975 46.2349 33.0948C46.1135 32.8875 46.0012 32.6758 45.8799 32.437L45.4395 31.5585H45.4484Z" fill="#54160C"/>
</g>
<defs>
<clipPath id="clip0_1531_2890">
<rect width="42" height="48" fill="white" transform="translate(16 8)"/>
</clipPath>
</defs>
</svg>
