<svg width="94" height="80" viewBox="0 0 94 80" fill="none" xmlns="http://www.w3.org/2000/svg">
<g id="Frame 7">
<path id="Vector" d="M11.2491 20.1857C11.166 20.6951 11.1946 21.2167 11.3328 21.7137C11.471 22.2108 11.7154 22.6712 12.049 23.0626C12.3825 23.4539 12.797 23.7667 13.2632 23.9789C13.7295 24.191 14.2361 24.2974 14.7475 24.2906L23.317 49.461L28.785 45.6677L18.2294 20.458C18.1611 19.5916 17.7802 18.7805 17.159 18.1786C16.5379 17.5767 15.7195 17.2257 14.8591 17.1921C13.9987 17.1586 13.156 17.4448 12.4906 17.9965C11.8253 18.5482 11.3836 19.3271 11.2491 20.1857Z" fill="#A0616A"/>
<path id="Vector_2" d="M55.9767 28.702C52.1711 33.0726 42.7875 40.7748 35.0573 46.0785C33.3864 47.2248 31.7917 48.2574 30.348 49.1215C29.3728 49.7051 28.4659 50.2102 27.6495 50.6222C27.1015 50.8977 26.5032 51.0561 25.8918 51.0873C25.2804 51.1186 24.6692 51.0221 24.0965 50.8038C23.5238 50.5856 23.0019 50.2503 22.5635 49.819C22.1251 49.3878 21.7797 48.8697 21.5488 48.2974L16.1963 35.2258L18.0482 33.9865L22.6146 30.929L23.6517 30.2364L27.9338 40.5311L32.4493 36.8724L35.2526 34.6005L48.032 24.2481L49.1343 23.9178L51.7058 26.451L53.5243 28.2435L55.2349 28.5433C55.4907 28.5882 55.7384 28.6411 55.9767 28.702Z" fill="#6C63FF"/>
<path id="Vector_3" d="M90.1193 64.6177C90.3845 64.9576 90.6593 65.2959 90.9341 65.6358C89.9876 67.5976 88.9236 69.4994 87.748 71.3307C87.6606 71.2681 87.5733 71.2056 87.4859 71.1431C87.4721 71.1355 87.4588 71.1269 87.4462 71.1174C87.1206 70.8833 86.7934 70.6525 86.4678 70.4184V70.4168C86.1992 69.4941 86.0492 68.5403 86.0215 67.579C86.1894 67.5401 86.3414 67.45 86.4569 67.321C86.5725 67.1919 86.6458 67.0301 86.6672 66.8576C86.6885 66.685 86.6567 66.5099 86.5762 66.3562C86.4956 66.2025 86.3702 66.0774 86.2168 65.9981C86.174 65.9228 86.1438 65.8683 86.1009 65.7913C86.1025 65.7721 86.1057 65.7512 86.1072 65.732C86.3566 63.7295 88.8852 63.0304 90.1193 64.6177Z" fill="white"/>
<path id="Vector_4" d="M92.97 57.7556C93.1606 58.2847 93.3342 58.8197 93.4909 59.3605C93.3829 59.6812 93.2723 60.0008 93.159 60.3193C93.1161 60.1509 93.0716 59.9826 93.0256 59.8142C92.7672 58.8782 92.457 57.9575 92.0964 57.0566C91.801 56.3175 91.4738 55.5938 91.1149 54.8857C89.163 51.0388 86.3346 47.7144 82.8621 45.1858C81.427 44.8508 80.1282 44.0797 79.1407 42.9765C78.7845 42.5801 78.4866 42.1341 78.256 41.6522C78.4022 41.6313 78.5483 41.6025 78.6912 41.572C78.7357 41.5624 78.7818 41.5512 78.8262 41.5416L78.8437 41.5383C79 41.5018 79.1424 41.4204 79.254 41.304C79.3655 41.1876 79.4414 41.0412 79.4724 40.8823C79.5034 40.7235 79.4884 40.5589 79.4289 40.4085C79.3695 40.2581 79.2683 40.1282 79.1375 40.0345C79.0565 39.9751 78.9739 39.9174 78.8929 39.8597C78.7691 39.7683 78.6436 39.6817 78.5181 39.592C78.5049 39.5836 78.4921 39.5745 78.48 39.5647C78.337 39.4621 78.1941 39.3627 78.0527 39.2585C78.1624 38.9012 78.3521 38.5743 78.607 38.3029C79.4949 37.3778 81.08 37.3987 82.1156 38.1522C83.1527 38.9058 83.6737 40.2253 83.7404 41.5111C83.7992 42.6126 83.5641 43.7028 83.2544 44.7658C83.3322 44.8235 83.4132 44.878 83.491 44.9373C84.921 46.0071 86.2435 47.2159 87.4395 48.5463C86.7486 46.8917 86.4977 44.7337 86.6772 43.2475C86.8821 41.5544 87.6968 39.9463 88.3639 38.3446C89.1628 36.4207 91.8884 36.395 92.6571 38.3318C92.665 38.351 92.673 38.3686 92.6793 38.3879C92.5507 38.5178 92.4268 38.6524 92.3077 38.7919C92.1581 38.9677 92.0646 39.1849 92.0394 39.4152C92.0142 39.6455 92.0585 39.8781 92.1665 40.0826C92.2745 40.2871 92.4411 40.4539 92.6445 40.5611C92.848 40.6684 93.0788 40.7112 93.3067 40.6838L93.3305 40.6806C93.4296 41.2522 93.4859 41.8304 93.4989 42.4105C93.5186 44.0335 93.206 45.6431 92.5807 47.1384C91.9553 48.6338 91.0307 49.9826 89.8649 51.1004C89.7886 51.1725 89.714 51.2431 89.6362 51.312C90.3719 52.3682 91.0327 53.4756 91.6136 54.626C92.1292 55.64 92.5822 56.6852 92.97 57.7556Z" fill="white"/>
<path id="Vector_5" d="M62.3663 42.7148L61.8867 75.9686L23.1387 74.8463L29.3267 61.058C29.2822 60.6155 32.0426 57.5099 32.0268 57.0498C31.9791 55.7014 32.9766 54.4525 33.1386 53.0416C33.4689 50.1316 31.5773 39.1427 32.4492 36.8724C32.8207 35.8586 33.2966 34.8871 33.8692 33.9737C34.3647 33.2169 34.873 32.7071 35.359 32.5227L36.7916 29.1526L38.0623 27.2286L48.032 24.2481L49.1343 23.9178L51.7057 26.451L53.5243 28.2435L55.2349 28.5433C55.4906 28.5882 55.7384 28.6411 55.9766 28.7021C57.1241 28.9691 58.1935 29.504 59.0992 30.2637C62.0852 32.8241 62.433 37.6404 62.3663 42.7148Z" fill="#6C63FF"/>
<path id="Vector_6" d="M77.4208 75.1471C76.4188 76.7998 75.357 78.3843 74.2356 79.9004L70.3934 79.9042L49.7308 79.9349L46.0111 79.9406L43.538 79.9445L39.859 79.9483L37.0292 79.9521L31.802 79.9598L28.7187 79.9655L22.2258 79.9732L19.1265 79.9789L10.5378 79.9904L5.14316 79.9981L3.69545 80C3.37357 79.5672 3.05655 79.128 2.74439 78.6824C1.96664 77.5735 1.21851 76.4302 0.5 75.2524L3.49737 75.2486L5.53931 75.2466L10.2669 75.239L19.3901 75.2275L22.4734 75.2237L23.7201 75.2218H23.7245L24.7032 75.2198L25.1416 75.2179L26.2646 75.216H26.7394L30.0688 75.2122L37.2505 75.2007L40.411 75.1969L43.4375 75.193L46.2747 75.1892L50.3455 75.1835L72.0873 75.1547L77.4208 75.1471Z" fill="#CCCCCC"/>
<path id="Path 9" d="M31.0102 25.7876L31.0016 25.7884C30.5434 25.8315 30.087 25.689 29.7329 25.3924C29.3787 25.0958 29.1558 24.6693 29.1132 24.2067L28.2099 14.4749C28.0464 12.7314 28.2319 10.9726 28.7553 9.30304C29.7811 6.04443 32.0131 3.31112 34.9861 1.67274C36.5212 0.829007 38.2097 0.30776 39.9497 0.140418C47.0683 -0.544187 49.6698 0.952416 54.0672 11.912C58.4645 22.8715 54.9718 21.6587 54.9718 21.6587C54.9938 21.8932 54.9688 22.1299 54.8983 22.3544C54.7599 22.7926 54.4591 23.1598 54.0588 23.3794C53.8534 23.4919 53.6277 23.5615 53.3951 23.5841C44.9793 25.7435 36.4875 28.0165 31.0088 25.7877L31.0102 25.7876Z" fill="#2F2E41"/>
<path id="Ellipse 1" d="M46.6745 9.36169C47.7309 10.9395 48.3004 12.798 48.3111 14.7023C48.3218 16.6067 47.7732 18.4715 46.7346 20.0613C45.696 21.6512 44.2139 22.8946 42.4757 23.6347C40.7374 24.3748 38.8208 24.5782 36.968 24.2194C35.7415 23.9859 34.5731 23.5091 33.5305 22.8165C32.4879 22.1239 31.5918 21.2294 30.8941 20.1847C29.8399 18.6074 29.272 16.7504 29.2619 14.8477C29.2517 12.945 29.7999 11.0819 30.8373 9.4933C31.8747 7.90468 33.3548 6.66167 35.091 5.92099C36.8272 5.18031 38.7418 4.97513 40.5934 5.33131C41.8209 5.56343 42.9905 6.03925 44.0344 6.73117C45.0782 7.42309 45.9756 8.31734 46.6745 9.36206L46.6745 9.36169Z" fill="#9E616A"/>
<path id="Path 10" d="M25.2257 15.556C25.0965 14.1772 25.2432 12.7862 25.657 11.4657C25.753 8.23557 26.6814 5.3098 30.5843 5.4326C31.7908 4.77011 33.1169 4.35933 34.4839 4.22473L36.4126 4.03247C36.4342 4.0303 36.4559 4.02819 36.4776 4.02615C37.8138 3.90062 39.1614 4.04199 40.4436 4.44219C41.7257 4.84239 42.9171 5.49359 43.9499 6.35861C44.9827 7.22362 45.8366 8.28551 46.4629 9.48365C47.0891 10.6818 47.4755 11.9927 47.5998 13.3415L47.6179 13.5365L43.5374 13.9392L41.7812 10.1455L41.8679 14.1047L39.7604 14.3135L38.8747 12.3995L38.918 14.3957C35.7888 17.1777 31.0438 17.3235 25.2456 15.7512L25.2257 15.556Z" fill="#2F2E41"/>
<path id="Path 13" d="M38.2779 24.7909C38.2432 25.1115 38.2983 25.4356 38.437 25.7262C38.5069 25.875 38.5971 26.0132 38.705 26.1368C38.7973 26.242 38.9016 26.3359 39.0157 26.4164C39.3538 26.654 39.7646 26.7622 40.1745 26.7216C40.2001 26.7189 40.2256 26.7158 40.251 26.7122C40.2764 26.7086 40.3018 26.7043 40.3272 26.6995C40.3528 26.6949 40.3782 26.6896 40.4034 26.6836C40.4286 26.6775 40.4539 26.671 40.4793 26.664L41.9034 26.2611L43.4995 21.7688L43.8654 25.7108L50.3413 23.8908L48.7887 7.16286L37.751 8.26073L38.0537 8.55497C39.0595 9.54319 39.7757 10.7924 40.1235 12.165C40.4687 13.556 40.5752 14.9964 40.4385 16.4237C40.3108 17.8669 40.0461 19.2944 39.648 20.6866C39.3015 21.9193 38.885 23.1309 38.4004 24.3152C38.3377 24.4672 38.2965 24.6273 38.2779 24.7909Z" fill="#2F2E41"/>
<path id="Vector_7" d="M39.7499 77.5317C39.5601 77.5315 39.3728 77.4887 39.2014 77.4065L8.62358 78.194C8.38894 78.0818 8.19353 77.9004 8.06316 77.6737C7.93279 77.4471 7.87359 77.1858 7.89338 76.9245C7.91317 76.6632 8.01102 76.4141 8.174 76.2101C8.33699 76.0061 8.55744 75.8568 8.80625 75.7819L28.8111 69.7607C29.0183 69.6984 29.2377 69.6899 29.449 69.7361L60.3931 73.5433C60.6669 73.603 60.9138 73.7516 61.0962 73.9663C61.2785 74.181 61.3862 74.45 61.4029 74.7323C61.4196 75.0146 61.3443 75.2947 61.1885 75.5297C61.0327 75.7647 60.805 75.9419 60.5402 76.034L40.1689 77.4604C40.0341 77.5075 39.8925 77.5316 39.7499 77.5317Z" fill="#3F3D56"/>
<path id="Vector_8" d="M40.8746 75.383C40.7365 75.383 40.6007 75.3474 40.4802 75.2794L15.6466 76.4505C15.5055 76.3707 15.3916 76.2498 15.3196 76.1037C15.2476 75.9575 15.2208 75.7929 15.2428 75.6312C15.2648 75.4695 15.3346 75.3183 15.4429 75.1971C15.5513 75.076 15.6933 74.9906 15.8504 74.9521L24.8407 72.7494C24.981 72.7152 25.1279 72.7195 25.266 72.762L48.3524 72.734C48.5167 72.7848 48.6607 72.8874 48.7631 73.0267C48.8656 73.166 48.9212 73.3347 48.9218 73.5082C48.9224 73.6817 48.868 73.8509 48.7665 73.9909C48.665 74.1309 48.5218 74.2345 48.3578 74.2864L41.1148 75.346C41.037 75.3705 40.956 75.383 40.8746 75.383Z" fill="#2F2E41"/>
<path id="Vector_9" d="M38.2604 74.0469C38.6903 74.3266 39.1757 74.5078 39.6824 74.5777C40.1891 74.6476 40.7049 74.6045 41.1933 74.4514C41.6817 74.2984 42.131 74.0391 42.5094 73.6918C42.8878 73.3445 43.1862 72.9177 43.3835 72.4414L69.669 74.5256L68.3984 67.9522L41.2866 67.6914C40.472 67.4098 39.5834 67.4397 38.7891 67.7753C37.9948 68.1109 37.3501 68.7289 36.9771 69.5123C36.604 70.2957 36.5287 71.19 36.7652 72.0257C37.0017 72.8615 37.5338 73.5806 38.2604 74.0469Z" fill="#A0616A"/>
<path id="Vector_10" d="M53.7861 31.2369C53.7861 31.2369 57.7568 28.0303 62.5217 33.8021C65.7351 37.6946 71.9338 61.2255 72.4478 70.9764C72.4803 71.5934 72.3861 72.2105 72.1713 72.7891C71.9565 73.3677 71.6256 73.8952 71.1994 74.3386C70.7731 74.7821 70.2607 75.1319 69.6943 75.3661C69.1279 75.6003 68.5197 75.7139 67.9077 75.6997L53.8972 75.4536L52.3306 66.5634L63.392 66.6956L53.7861 31.2369Z" fill="#6C63FF"/>
<path id="Vector_11" d="M38.0494 77.5353C37.5687 77.5349 37.093 77.4376 36.65 77.2493L8.30822 77.902C7.56023 77.5872 6.93932 77.0268 6.54587 76.3116C6.15242 75.5964 6.00944 74.7682 6.14004 73.9608L5.08691 48.8354C5.22658 47.938 5.69452 47.126 6.39834 46.5598C7.10216 45.9937 7.99071 45.7145 8.88851 45.7774L35.2007 46.879C35.7057 46.9124 36.1982 47.0526 36.6462 47.2905C37.0941 47.5285 37.4875 47.8588 37.8008 48.26C38.1141 48.6613 38.3404 49.1246 38.465 49.6198C38.5895 50.115 38.6095 50.6311 38.5238 51.1347L41.6066 74.5056C41.4616 75.3524 41.0254 76.1205 40.3747 76.6746C39.7241 77.2288 38.9007 77.5335 38.0494 77.5353Z" fill="#3F3D56"/>
<path id="Vector_12" d="M16.5281 2.73196L4.70005 2.69829C4.383 2.69791 4.07873 2.82444 3.85395 3.05015C3.62916 3.27585 3.5022 3.58232 3.50089 3.90236L3.45801 19.7124C3.45734 20.0321 3.58242 20.339 3.80578 20.5657C4.02914 20.7924 4.33251 20.9203 4.64923 20.9213L11.2105 20.9405L16.4788 20.9549C16.7958 20.9555 17.1 20.829 17.3246 20.6032C17.5492 20.3774 17.6757 20.0708 17.6764 19.7509L17.6796 18.8162L17.7209 3.94244C17.7215 3.62231 17.5963 3.31502 17.3726 3.08805C17.149 2.86109 16.8452 2.73301 16.5281 2.73196Z" fill="#E6E6E6"/>
<path id="Vector_13" d="M15.694 3.67629L5.52896 3.64743C5.23213 3.64705 4.94725 3.76548 4.73677 3.97675C4.52628 4.18802 4.40735 4.47491 4.40604 4.77454L4.37745 14.9394C4.37546 16.2743 4.89806 17.5555 5.83062 18.502C6.76319 19.4485 8.02957 19.9829 9.35198 19.9882L11.2833 19.993L15.6496 20.0058C15.9465 20.0064 16.2315 19.8881 16.4421 19.6768C16.6526 19.4654 16.7715 19.1784 16.7725 18.8787L16.7757 17.8558L16.8106 4.80982C16.8113 4.5101 16.694 4.22237 16.4847 4.00984C16.2753 3.79731 15.991 3.67734 15.694 3.67629Z" fill="white"/>
<path id="Vector_14" d="M14.5522 10.6217H6.62657C6.5641 10.6217 6.50224 10.6342 6.44453 10.6583C6.38682 10.6824 6.33438 10.7178 6.2902 10.7624C6.24603 10.807 6.21099 10.8599 6.18709 10.9182C6.16318 10.9764 6.15088 11.0389 6.15088 11.1019C6.15088 11.165 6.16318 11.2274 6.18709 11.2857C6.21099 11.3439 6.24603 11.3969 6.2902 11.4415C6.33438 11.4861 6.38682 11.5214 6.44453 11.5456C6.50224 11.5697 6.5641 11.5821 6.62657 11.5821H14.5522C14.6783 11.5821 14.7993 11.5315 14.8885 11.4415C14.9777 11.3514 15.0278 11.2293 15.0278 11.1019C15.0278 10.9746 14.9777 10.8524 14.8885 10.7624C14.7993 10.6723 14.6783 10.6217 14.5522 10.6217Z" fill="#6C63FF"/>
<path id="Vector_15" d="M14.4013 7H6.47569C6.41322 7 6.35136 7.01242 6.29365 7.03655C6.23594 7.06068 6.1835 7.09605 6.13932 7.14064C6.09515 7.18523 6.06011 7.23816 6.03621 7.29642C6.0123 7.35468 6 7.41713 6 7.48018C6 7.54324 6.0123 7.60569 6.03621 7.66395C6.06011 7.7222 6.09515 7.77514 6.13932 7.81973C6.1835 7.86432 6.23594 7.89969 6.29365 7.92382C6.35136 7.94795 6.41322 7.96037 6.47569 7.96037H14.4013C14.5274 7.96037 14.6484 7.90978 14.7376 7.81973C14.8269 7.72968 14.877 7.60754 14.877 7.48018C14.877 7.35283 14.8269 7.23069 14.7376 7.14064C14.6484 7.05059 14.5274 7 14.4013 7Z" fill="#6C63FF"/>
<path id="Vector_16" d="M14.5522 14.8432H6.62657C6.50041 14.8432 6.37941 14.8938 6.2902 14.9839C6.20099 15.0739 6.15088 15.196 6.15088 15.3234C6.15088 15.4508 6.20099 15.5729 6.2902 15.6629C6.37941 15.753 6.50041 15.8036 6.62657 15.8036H14.5522C14.6783 15.8036 14.7993 15.753 14.8885 15.6629C14.9777 15.5729 15.0278 15.4508 15.0278 15.3234C15.0278 15.196 14.9777 15.0739 14.8885 14.9839C14.7993 14.8938 14.6783 14.8432 14.5522 14.8432Z" fill="#6C63FF"/>
<path id="Vector_17" d="M14.5523 12.7333H6.62675C6.5008 12.7333 6.38001 12.7838 6.29095 12.8737C6.20189 12.9636 6.15186 13.0855 6.15186 13.2126C6.15186 13.3398 6.20189 13.4617 6.29095 13.5516C6.38001 13.6415 6.5008 13.692 6.62675 13.692H14.5523C14.6783 13.692 14.7991 13.6415 14.8881 13.5516C14.9772 13.4617 15.0272 13.3398 15.0272 13.2126C15.0272 13.0855 14.9772 12.9636 14.8881 12.8737C14.7991 12.7838 14.6783 12.7333 14.5523 12.7333Z" fill="#6C63FF"/>
</g>
</svg>
