<svg width="28" height="28" viewBox="0 0 28 28" fill="none" xmlns="http://www.w3.org/2000/svg">
<path fill-rule="evenodd" clip-rule="evenodd" d="M12.6666 3.0999C7.38304 3.0999 3.0999 7.38304 3.0999 12.6666C3.0999 17.9501 7.38304 22.2332 12.6666 22.2332C17.9501 22.2332 22.2332 17.9501 22.2332 12.6666C22.2332 7.38304 17.9501 3.0999 12.6666 3.0999ZM0.899902 12.6666C0.899902 6.16802 6.16802 0.899902 12.6666 0.899902C19.1652 0.899902 24.4332 6.16802 24.4332 12.6666C24.4332 15.5105 23.4244 18.1187 21.745 20.1529L26.7805 25.2249C27.2085 25.656 27.206 26.3525 26.7749 26.7805C26.3438 27.2085 25.6473 27.206 25.2193 26.7749L20.1927 21.712C18.1528 23.4111 15.529 24.4332 12.6666 24.4332C6.16802 24.4332 0.899902 19.1652 0.899902 12.6666Z" fill="#1C274C"/>
</svg>
