<svg width="83" height="79" viewBox="0 0 83 79" fill="none" xmlns="http://www.w3.org/2000/svg">
<g id="User SVG">
<g id="Group 2">
<path id="Vector" d="M61.8429 26.7097H53.8477V38.3508L62.6629 35.6919L61.8429 26.7097Z" fill="#E7979A"/>
<path id="Vector_2" d="M57.3809 28.8776C63.9838 28.8776 69.3365 23.9112 69.3365 17.7849C69.3365 11.6586 63.9838 6.69223 57.3809 6.69223C50.778 6.69223 45.4253 11.6586 45.4253 17.7849C45.4253 23.9112 50.778 28.8776 57.3809 28.8776Z" fill="#E7979A"/>
<path id="Vector_3" d="M77.022 79H38.5933L50.1219 32.1643L66.7744 32.5751L77.022 79Z" fill="#6C63FF"/>
<path id="uuid-b13828aa-7dbb-4654-a51f-7f6b6cc292f7-3968" d="M28.5156 31.7131C27.8937 28.8997 29.0326 26.3301 31.0592 25.9738C33.0857 25.6175 35.232 27.6093 35.8536 30.4238C36.1194 31.545 36.0774 32.7072 35.7311 33.8131L38.1955 45.7637L31.824 46.6876L30.071 34.8084C29.2799 33.9022 28.7466 32.8408 28.5156 31.7131Z" fill="#E69B9E"/>
<path id="Vector_4" d="M66.7745 32.5751L51.5636 32.1643L41.4248 50.8978L37.601 36.8607L29.1997 37.685C29.1997 37.685 31.1878 65.1132 39.8782 64.1868C48.5685 63.2604 69.0028 38.9569 66.7745 32.5751Z" fill="#6C63FF"/>
<path id="Vector_5" d="M57.7534 32.4289C57.7534 32.4289 66.3828 32.1904 66.8295 32.4289C69.1829 33.6856 82.9999 79 82.9999 79H74.2497L57.7534 32.4289Z" fill="#6C63FF"/>
<path id="Vector_6" d="M61.7951 28.9888C61.1335 29.2706 59.7788 24.1389 60.3857 23.1126C61.2881 21.5862 61.2348 21.5971 61.8339 20.5873C62.433 19.5774 62.567 18.1952 61.7912 17.3066C61.0154 16.418 59.22 16.5359 58.866 17.65C59.0937 15.5339 56.9437 13.8329 54.814 13.3549C52.6844 12.8769 50.438 13.1737 48.2966 12.7483C45.8113 12.2546 43.2256 10.2266 44.2171 7.56609C44.3873 7.12314 44.6421 6.71555 44.968 6.36485C46.1136 5.11087 47.7161 4.57541 49.283 4.05769C52.5426 2.98062 55.8914 1.89002 59.3315 2.00892C62.166 2.15319 64.8958 3.09875 67.1868 4.72987C69.4779 6.36098 71.2308 8.60689 72.2311 11.1928C72.4682 11.8397 72.6519 12.504 72.7804 13.1793C73.9611 19.3602 70.2742 25.4568 64.2861 27.8105L61.7951 28.9888Z" fill="#2F2E41"/>
</g>
<g id="Group 3">
<path id="Vector_7" d="M32.2749 29.0772H12.7333C12.287 29.0785 11.8462 28.9818 11.4445 28.7946C11.0429 28.6074 10.6909 28.3345 10.4155 27.9968C10.1351 27.656 9.93925 27.2582 9.84285 26.8337C9.74645 26.4092 9.75203 25.9691 9.85916 25.547C11.6557 18.3097 11.6556 10.7674 9.85904 3.53011C9.75196 3.10798 9.74643 2.66793 9.84284 2.24343C9.93925 1.81893 10.1351 1.42117 10.4154 1.08043C10.6909 0.742672 11.0429 0.469802 11.4445 0.28258C11.8462 0.095359 12.287 -0.00128399 12.7333 1.28815e-05H32.2749C32.9788 0.00203224 33.6591 0.2443 34.1947 0.683663C34.7302 1.12303 35.0862 1.73096 35.1992 2.39917C36.4873 10.4447 36.4873 18.6325 35.1992 26.678C35.0862 27.3462 34.7302 27.9542 34.1947 28.3935C33.6591 28.8329 32.9788 29.0752 32.2749 29.0772Z" fill="#F2F2F2"/>
<path id="Vector_8" d="M22.5588 19.8623C25.6717 19.8623 28.1952 17.4352 28.1952 14.4413C28.1952 11.4475 25.6717 9.02042 22.5588 9.02042C19.4459 9.02042 16.9224 11.4475 16.9224 14.4413C16.9224 17.4352 19.4459 19.8623 22.5588 19.8623Z" fill="white"/>
<path id="Vector_9" d="M25.2545 13.7343H23.294V11.8487C23.294 11.6612 23.2165 11.4814 23.0787 11.3488C22.9408 11.2162 22.7538 11.1417 22.5588 11.1417C22.3638 11.1417 22.1768 11.2162 22.0389 11.3488C21.9011 11.4814 21.8236 11.6612 21.8236 11.8487V13.7343H19.8631C19.6681 13.7343 19.4811 13.8088 19.3433 13.9414C19.2054 14.074 19.1279 14.2538 19.1279 14.4413C19.1279 14.6289 19.2054 14.8087 19.3433 14.9413C19.4811 15.0739 19.6681 15.1484 19.8631 15.1484H21.8236V17.034C21.8236 17.2215 21.9011 17.4013 22.0389 17.5339C22.1768 17.6665 22.3638 17.741 22.5588 17.741C22.7538 17.741 22.9408 17.6665 23.0787 17.5339C23.2165 17.4013 23.294 17.2215 23.294 17.034V15.1484H25.2545C25.4495 15.1484 25.6365 15.0739 25.7743 14.9413C25.9122 14.8087 25.9897 14.6289 25.9897 14.4413C25.9897 14.2538 25.9122 14.074 25.7743 13.9414C25.6365 13.8088 25.4495 13.7343 25.2545 13.7343Z" fill="#6C63FF"/>
</g>
<g id="Group 1">
<path id="Vector_10" d="M10.3137 74.7606L31.0078 71.1619C31.4611 71.0844 31.8889 70.9074 32.2587 70.6443C32.6284 70.3812 32.9304 70.0389 33.1416 69.6436C33.3573 69.2441 33.4755 68.8009 33.4874 68.3478C33.4992 67.8947 33.4043 67.4437 33.2099 67.029C29.7693 59.5895 28.1714 51.4907 28.5454 43.3878C28.5686 42.9353 28.485 42.4823 28.3011 42.0633C28.1172 41.6443 27.8377 41.2703 27.484 40.9698C27.136 40.6717 26.7234 40.4537 26.2778 40.3324C25.8322 40.2111 25.3652 40.1897 24.9124 40.2698L4.21838 43.8685C3.50429 43.9948 2.86279 44.3635 2.40814 44.909C1.95349 45.4546 1.71521 46.1415 1.73573 46.8475C2.07162 55.6892 3.79946 64.4461 6.85923 72.814C7.10941 73.4801 7.59397 74.0413 8.2266 74.3978C8.85923 74.7543 9.59885 74.8828 10.3137 74.7606Z" fill="#E6E6E6"/>
<path id="Vector_11" d="M25.2106 41.7856C25.428 41.747 25.6523 41.7572 25.8663 41.8154C26.0803 41.8736 26.2784 41.9782 26.4456 42.1213C26.6176 42.2678 26.7534 42.45 26.8426 42.6541C26.9319 42.8581 26.9723 43.0787 26.9607 43.2989C26.5756 51.6434 28.2212 59.9836 31.7642 67.6449C31.8591 67.8466 31.9056 68.0661 31.9001 68.2866C31.8946 68.5071 31.8374 68.7228 31.7327 68.9174C31.6312 69.1072 31.4861 69.2717 31.3085 69.398C31.1309 69.5243 30.9254 69.6093 30.7077 69.6464L10.0155 73.2449C9.67245 73.3046 9.3171 73.244 9.01276 73.0738C8.70841 72.9036 8.47482 72.6348 8.35359 72.3153C5.34839 64.0962 3.65133 55.4951 3.32137 46.8107C3.31267 46.4717 3.42822 46.1422 3.64743 45.8809C3.86664 45.6197 4.17529 45.4436 4.5184 45.384L25.2106 41.7856Z" fill="white"/>
<path id="Vector_12" d="M11.221 55.7151L22.1336 53.8095C22.5483 53.7366 22.9144 53.5059 23.1514 53.1681C23.3885 52.8302 23.4772 52.4128 23.398 52.0073L23.2807 51.4099C23.2006 51.0046 22.9593 50.6448 22.6097 50.4094C22.2601 50.174 21.8307 50.0822 21.4158 50.1542L10.5032 52.0598C10.0884 52.1327 9.72237 52.3634 9.48532 52.7012C9.24827 53.0391 9.15959 53.4565 9.23874 53.862L9.35607 54.4595C9.43612 54.8647 9.67743 55.2245 10.027 55.46C10.3767 55.6954 10.806 55.7871 11.221 55.7151Z" fill="#6C63FF"/>
<path id="Vector_13" d="M12.6521 63.159L23.5647 61.2534C23.9795 61.1805 24.3455 60.9498 24.5826 60.6119C24.8196 60.2741 24.9083 59.8567 24.8292 59.4512L24.7119 58.8537C24.6318 58.4485 24.3905 58.0886 24.0409 57.8532C23.6913 57.6178 23.2619 57.5261 22.847 57.5981L11.9343 59.5037C11.5196 59.5766 11.1535 59.8073 10.9165 60.1451C10.6794 60.483 10.5907 60.9004 10.6699 61.3058L10.7872 61.9033C10.8673 62.3086 11.1086 62.6684 11.4582 62.9038C11.8078 63.1392 12.2372 63.231 12.6521 63.159Z" fill="#6C63FF"/>
<path id="Vector_14" d="M9.47507 46.2605L20.4235 44.3511C20.7344 44.2966 21.0088 44.1239 21.1865 43.8709C21.3642 43.618 21.4307 43.3055 21.3714 43.002L20.9712 40.9672C20.9112 40.6638 20.7302 40.3944 20.4681 40.2182C20.206 40.0419 19.8841 39.9732 19.5731 40.0271L8.62466 41.9364C8.31373 41.991 8.03931 42.1637 7.8616 42.4167C7.68389 42.6696 7.6174 42.9821 7.67673 43.2856L8.07692 45.3204C8.13695 45.6238 8.31787 45.8932 8.57999 46.0694C8.8421 46.2457 9.164 46.3144 9.47507 46.2605Z" fill="#CCCCCC"/>
</g>
</g>
</svg>
