<svg width="133" height="131" viewBox="0 0 133 131" fill="none" xmlns="http://www.w3.org/2000/svg">
<path id="Vector" d="M66.5 0C30.1074 0 0.5 29.3831 0.5 65.5C0.5 101.617 30.1074 131 66.5 131C102.893 131 132.5 101.617 132.5 65.5C132.5 29.3831 102.893 0 66.5 0ZM66.5 121.591C35.3349 121.591 9.98066 96.429 9.98066 65.5C9.98066 34.571 35.3349 9.40884 66.5 9.40884C97.6651 9.40884 123.019 34.571 123.019 65.5C123.019 96.429 97.6651 121.591 66.5 121.591ZM66.5 15.6824C63.8819 15.6824 61.7597 17.7885 61.7597 20.3868V63.4966L38.1762 85.9939C36.2888 87.7932 36.229 90.7721 38.0434 92.6452C38.974 93.6064 40.2167 94.0898 41.4608 94.0898C42.6437 94.0898 43.8266 93.6541 44.7455 92.7769L69.7847 68.8915C70.7152 68.0042 71.2403 66.7796 71.2403 65.5V20.3868C71.2403 17.7885 69.1181 15.6824 66.5 15.6824Z" fill="#94A2B8"/>
</svg>
