<svg width="16" height="16" viewBox="0 0 16 16" fill="none" xmlns="http://www.w3.org/2000/svg">
<path id="Vector" d="M0.700117 13.9C0.313503 14.2867 0.313503 14.9134 0.700117 15.3C1.08673 15.6867 1.71357 15.6867 2.10019 15.3L0.700117 13.9ZM8.70015 8.70003C9.08678 8.3134 9.08678 7.68666 8.70015 7.30003C8.31352 6.91341 7.68679 6.91341 7.30016 7.30003L8.70015 8.70003ZM7.30016 7.30003C6.91353 7.68666 6.91353 8.3134 7.30016 8.70003C7.68679 9.08666 8.31352 9.08666 8.70015 8.70003L7.30016 7.30003ZM15.3002 2.10007C15.6868 1.71345 15.6868 1.08661 15.3002 0.699995C14.9135 0.31338 14.2868 0.31338 13.9002 0.699995L15.3002 2.10007ZM8.70015 7.30003C8.31352 6.91341 7.68679 6.91341 7.30016 7.30003C6.91353 7.68666 6.91353 8.3134 7.30016 8.70003L8.70015 7.30003ZM13.9002 15.3C14.2868 15.6867 14.9135 15.6867 15.3002 15.3C15.6868 14.9134 15.6868 14.2867 15.3002 13.9L13.9002 15.3ZM7.30016 8.70003C7.68679 9.08666 8.31352 9.08666 8.70015 8.70003C9.08678 8.3134 9.08678 7.68666 8.70015 7.30003L7.30016 8.70003ZM2.10019 0.699995C1.71357 0.31338 1.08673 0.31338 0.700117 0.699995C0.313503 1.08661 0.313503 1.71345 0.700117 2.10007L2.10019 0.699995ZM2.10019 15.3L8.70015 8.70003L7.30016 7.30003L0.700117 13.9L2.10019 15.3ZM8.70015 8.70003L15.3002 2.10007L13.9002 0.699995L7.30016 7.30003L8.70015 8.70003ZM7.30016 8.70003L13.9002 15.3L15.3002 13.9L8.70015 7.30003L7.30016 8.70003ZM8.70015 7.30003L2.10019 0.699995L0.700117 2.10007L7.30016 8.70003L8.70015 7.30003Z" fill="#ED4B9E"/>
</svg>
